M48
;DRILL file {KiCad 4.0.5+dfsg1-4} date Sun May 13 10:16:07 2018
;FORMAT={-:-/ absolute / metric / decimal}
FMAT,2
METRIC,TZ
T1C0.400
T2C0.600
T3C0.800
T4C0.813
T5C1.001
T6C1.016
T7C1.270
%
G90
G05
M71
T1
X88.9Y-109.22
X88.9Y-128.27
X89.535Y-122.555
X93.98Y-158.75
X96.52Y-106.68
X96.52Y-158.75
X99.06Y-116.84
X99.06Y-119.38
X99.06Y-121.92
X99.06Y-127.
X129.54Y-154.94
X144.78Y-160.02
T2
X86.36Y-88.9
X87.63Y-88.9
X88.9Y-88.9
X114.3Y-142.24
X115.57Y-142.24
X116.84Y-142.24
X121.92Y-142.24
X123.19Y-142.24
X124.46Y-142.24
X129.54Y-142.24
X130.81Y-142.24
X132.08Y-142.24
X137.16Y-142.24
X138.43Y-142.24
X139.7Y-142.24
X144.78Y-142.24
X146.05Y-142.24
X147.32Y-142.24
X152.4Y-142.24
X153.67Y-142.24
X154.94Y-142.24
X160.02Y-142.24
X161.29Y-142.24
X162.56Y-142.24
T3
X76.2Y-93.98
X76.2Y-101.6
X78.7Y-93.98
X78.7Y-101.6
X81.28Y-142.24
X81.28Y-144.78
X81.28Y-147.32
X81.28Y-149.86
X81.28Y-152.4
X83.82Y-96.52
X83.82Y-99.06
X83.82Y-101.6
X83.82Y-104.14
X83.82Y-114.3
X83.82Y-116.84
X83.82Y-119.38
X83.82Y-121.92
X83.82Y-124.46
X83.82Y-127.
X83.82Y-129.54
X83.82Y-132.08
X91.44Y-96.52
X91.44Y-99.06
X91.44Y-101.6
X91.44Y-104.14
X91.44Y-114.3
X91.44Y-116.84
X91.44Y-119.38
X91.44Y-121.92
X91.44Y-124.46
X91.44Y-127.
X91.44Y-129.54
X91.44Y-132.08
X96.52Y-142.24
X96.52Y-144.78
X96.52Y-147.32
X96.52Y-149.86
X96.52Y-152.4
T4
X76.2Y-121.92
X76.2Y-124.46
X76.2Y-127.
T5
X73.66Y-109.22
X73.66Y-116.84
X78.74Y-109.22
X78.74Y-116.84
X114.3Y-149.86
X114.3Y-157.48
X116.84Y-93.98
X116.84Y-99.06
X116.84Y-109.22
X116.84Y-114.3
X116.84Y-119.38
X116.84Y-124.46
X116.84Y-129.54
X116.84Y-134.62
X121.92Y-149.86
X121.92Y-157.48
X124.46Y-88.9
X124.46Y-93.98
X124.46Y-99.06
X124.46Y-104.14
X124.46Y-119.38
X124.46Y-124.46
X124.46Y-129.54
X124.46Y-134.62
X129.54Y-149.86
X129.54Y-157.48
X132.08Y-88.9
X132.08Y-99.06
X132.08Y-104.14
X132.08Y-109.22
X132.08Y-114.3
X132.08Y-119.38
X132.08Y-124.46
X132.08Y-129.54
X132.08Y-134.62
X137.16Y-149.86
X137.16Y-157.48
X139.7Y-93.98
X139.7Y-99.06
X139.7Y-109.22
X139.7Y-114.3
X139.7Y-124.46
X139.7Y-129.54
X139.7Y-134.62
X144.78Y-149.86
X144.78Y-157.48
X147.32Y-93.98
X147.32Y-114.3
X147.32Y-124.46
X147.32Y-134.62
X152.4Y-149.86
X152.4Y-157.48
X154.94Y-104.14
X154.94Y-109.22
X154.94Y-114.3
X154.94Y-124.46
X154.94Y-129.54
X154.94Y-134.62
X160.02Y-149.86
X160.02Y-157.48
X162.56Y-93.98
X162.56Y-99.06
X162.56Y-104.14
X162.56Y-109.22
X162.56Y-114.3
X162.56Y-124.46
X162.56Y-129.54
T6
X71.12Y-88.9
X71.12Y-91.44
X76.2Y-134.62
X104.14Y-104.14
X104.14Y-106.68
X104.14Y-109.22
X104.14Y-111.76
X104.14Y-114.3
X104.14Y-116.84
X104.14Y-119.38
X104.14Y-121.92
X104.14Y-124.46
X104.14Y-127.
T7
X113.03Y-93.98
X113.03Y-99.06
X113.03Y-109.22
X113.03Y-114.3
X113.03Y-119.38
X113.03Y-124.46
X113.03Y-129.54
X113.03Y-134.62
X120.65Y-88.9
X120.65Y-93.98
X120.65Y-99.06
X120.65Y-104.14
X120.65Y-119.38
X120.65Y-124.46
X120.65Y-129.54
X120.65Y-134.62
X128.27Y-88.9
X128.27Y-99.06
X128.27Y-104.14
X128.27Y-109.22
X128.27Y-114.3
X128.27Y-119.38
X128.27Y-124.46
X128.27Y-129.54
X128.27Y-134.62
X135.89Y-93.98
X135.89Y-99.06
X135.89Y-109.22
X135.89Y-114.3
X135.89Y-124.46
X135.89Y-129.54
X135.89Y-134.62
X143.51Y-93.98
X143.51Y-114.3
X143.51Y-124.46
X143.51Y-134.62
X151.13Y-104.14
X151.13Y-109.22
X151.13Y-114.3
X151.13Y-124.46
X151.13Y-129.54
X151.13Y-134.62
X158.75Y-93.98
X158.75Y-99.06
X158.75Y-104.14
X158.75Y-109.22
X158.75Y-114.3
X158.75Y-124.46
X158.75Y-129.54
T0
M30
