%FSLAX45Y45*%
G04 Gerber Fmt 4.5, Leading zero omitted, Abs format (unit mm)*
G04 Created by KiCad (PCBNEW 4.0.5+dfsg1-4) date Sun May 13 10:16:08 2018*
%MOMM*%
%LPD*%
G01*
G04 APERTURE LIST*
%ADD10C,0.127000*%
%ADD11C,0.150000*%
%ADD12C,0.200000*%
%ADD13C,0.300000*%
G04 APERTURE END LIST*
D10*
D11*
X16764000Y-8636000D02*
X16764000Y-16256000D01*
X6858000Y-8636000D02*
X6858000Y-16256000D01*
X16764000Y-16256000D02*
X6858000Y-16256000D01*
X6858000Y-8636000D02*
X16764000Y-8636000D01*
D12*
X8870000Y-10902000D02*
X8910000Y-10942000D01*
X8910000Y-10902000D02*
X8870000Y-10942000D01*
X8870000Y-12807000D02*
X8910000Y-12847000D01*
X8910000Y-12807000D02*
X8870000Y-12847000D01*
X8933500Y-12235500D02*
X8973500Y-12275500D01*
X8973500Y-12235500D02*
X8933500Y-12275500D01*
X9378000Y-15855000D02*
X9418000Y-15895000D01*
X9418000Y-15855000D02*
X9378000Y-15895000D01*
X9632000Y-10648000D02*
X9672000Y-10688000D01*
X9672000Y-10648000D02*
X9632000Y-10688000D01*
X9632000Y-15855000D02*
X9672000Y-15895000D01*
X9672000Y-15855000D02*
X9632000Y-15895000D01*
X9886000Y-11664000D02*
X9926000Y-11704000D01*
X9926000Y-11664000D02*
X9886000Y-11704000D01*
X9886000Y-11918000D02*
X9926000Y-11958000D01*
X9926000Y-11918000D02*
X9886000Y-11958000D01*
X9886000Y-12172000D02*
X9926000Y-12212000D01*
X9926000Y-12172000D02*
X9886000Y-12212000D01*
X9886000Y-12680000D02*
X9926000Y-12720000D01*
X9926000Y-12680000D02*
X9886000Y-12720000D01*
X12934000Y-15474000D02*
X12974000Y-15514000D01*
X12974000Y-15474000D02*
X12934000Y-15514000D01*
X14458000Y-15982000D02*
X14498000Y-16022000D01*
X14498000Y-15982000D02*
X14458000Y-16022000D01*
X8666000Y-8890000D02*
G75*
G03X8666000Y-8890000I-30000J0D01*
G01*
X8793000Y-8890000D02*
G75*
G03X8793000Y-8890000I-30000J0D01*
G01*
X8920000Y-8890000D02*
G75*
G03X8920000Y-8890000I-30000J0D01*
G01*
X11460000Y-14224000D02*
G75*
G03X11460000Y-14224000I-30000J0D01*
G01*
X11587000Y-14224000D02*
G75*
G03X11587000Y-14224000I-30000J0D01*
G01*
X11714000Y-14224000D02*
G75*
G03X11714000Y-14224000I-30000J0D01*
G01*
X12222000Y-14224000D02*
G75*
G03X12222000Y-14224000I-30000J0D01*
G01*
X12349000Y-14224000D02*
G75*
G03X12349000Y-14224000I-30000J0D01*
G01*
X12476000Y-14224000D02*
G75*
G03X12476000Y-14224000I-30000J0D01*
G01*
X12984000Y-14224000D02*
G75*
G03X12984000Y-14224000I-30000J0D01*
G01*
X13111000Y-14224000D02*
G75*
G03X13111000Y-14224000I-30000J0D01*
G01*
X13238000Y-14224000D02*
G75*
G03X13238000Y-14224000I-30000J0D01*
G01*
X13746000Y-14224000D02*
G75*
G03X13746000Y-14224000I-30000J0D01*
G01*
X13873000Y-14224000D02*
G75*
G03X13873000Y-14224000I-30000J0D01*
G01*
X14000000Y-14224000D02*
G75*
G03X14000000Y-14224000I-30000J0D01*
G01*
X14508000Y-14224000D02*
G75*
G03X14508000Y-14224000I-30000J0D01*
G01*
X14635000Y-14224000D02*
G75*
G03X14635000Y-14224000I-30000J0D01*
G01*
X14762000Y-14224000D02*
G75*
G03X14762000Y-14224000I-30000J0D01*
G01*
X15270000Y-14224000D02*
G75*
G03X15270000Y-14224000I-30000J0D01*
G01*
X15397000Y-14224000D02*
G75*
G03X15397000Y-14224000I-30000J0D01*
G01*
X15524000Y-14224000D02*
G75*
G03X15524000Y-14224000I-30000J0D01*
G01*
X16032000Y-14224000D02*
G75*
G03X16032000Y-14224000I-30000J0D01*
G01*
X16159000Y-14224000D02*
G75*
G03X16159000Y-14224000I-30000J0D01*
G01*
X16286000Y-14224000D02*
G75*
G03X16286000Y-14224000I-30000J0D01*
G01*
X7620000Y-9358000D02*
X7620000Y-9438000D01*
X7580000Y-9398000D02*
X7660000Y-9398000D01*
X7620000Y-10120000D02*
X7620000Y-10200000D01*
X7580000Y-10160000D02*
X7660000Y-10160000D01*
X7870000Y-9358000D02*
X7870000Y-9438000D01*
X7830000Y-9398000D02*
X7910000Y-9398000D01*
X7870000Y-10120000D02*
X7870000Y-10200000D01*
X7830000Y-10160000D02*
X7910000Y-10160000D01*
X8128000Y-14184000D02*
X8128000Y-14264000D01*
X8088000Y-14224000D02*
X8168000Y-14224000D01*
X8128000Y-14438000D02*
X8128000Y-14518000D01*
X8088000Y-14478000D02*
X8168000Y-14478000D01*
X8128000Y-14692000D02*
X8128000Y-14772000D01*
X8088000Y-14732000D02*
X8168000Y-14732000D01*
X8128000Y-14946000D02*
X8128000Y-15026000D01*
X8088000Y-14986000D02*
X8168000Y-14986000D01*
X8128000Y-15200000D02*
X8128000Y-15280000D01*
X8088000Y-15240000D02*
X8168000Y-15240000D01*
X8382000Y-9612000D02*
X8382000Y-9692000D01*
X8342000Y-9652000D02*
X8422000Y-9652000D01*
X8382000Y-9866000D02*
X8382000Y-9946000D01*
X8342000Y-9906000D02*
X8422000Y-9906000D01*
X8382000Y-10120000D02*
X8382000Y-10200000D01*
X8342000Y-10160000D02*
X8422000Y-10160000D01*
X8382000Y-10374000D02*
X8382000Y-10454000D01*
X8342000Y-10414000D02*
X8422000Y-10414000D01*
X8382000Y-11390000D02*
X8382000Y-11470000D01*
X8342000Y-11430000D02*
X8422000Y-11430000D01*
X8382000Y-11644000D02*
X8382000Y-11724000D01*
X8342000Y-11684000D02*
X8422000Y-11684000D01*
X8382000Y-11898000D02*
X8382000Y-11978000D01*
X8342000Y-11938000D02*
X8422000Y-11938000D01*
X8382000Y-12152000D02*
X8382000Y-12232000D01*
X8342000Y-12192000D02*
X8422000Y-12192000D01*
X8382000Y-12406000D02*
X8382000Y-12486000D01*
X8342000Y-12446000D02*
X8422000Y-12446000D01*
X8382000Y-12660000D02*
X8382000Y-12740000D01*
X8342000Y-12700000D02*
X8422000Y-12700000D01*
X8382000Y-12914000D02*
X8382000Y-12994000D01*
X8342000Y-12954000D02*
X8422000Y-12954000D01*
X8382000Y-13168000D02*
X8382000Y-13248000D01*
X8342000Y-13208000D02*
X8422000Y-13208000D01*
X9144000Y-9612000D02*
X9144000Y-9692000D01*
X9104000Y-9652000D02*
X9184000Y-9652000D01*
X9144000Y-9866000D02*
X9144000Y-9946000D01*
X9104000Y-9906000D02*
X9184000Y-9906000D01*
X9144000Y-10120000D02*
X9144000Y-10200000D01*
X9104000Y-10160000D02*
X9184000Y-10160000D01*
X9144000Y-10374000D02*
X9144000Y-10454000D01*
X9104000Y-10414000D02*
X9184000Y-10414000D01*
X9144000Y-11390000D02*
X9144000Y-11470000D01*
X9104000Y-11430000D02*
X9184000Y-11430000D01*
X9144000Y-11644000D02*
X9144000Y-11724000D01*
X9104000Y-11684000D02*
X9184000Y-11684000D01*
X9144000Y-11898000D02*
X9144000Y-11978000D01*
X9104000Y-11938000D02*
X9184000Y-11938000D01*
X9144000Y-12152000D02*
X9144000Y-12232000D01*
X9104000Y-12192000D02*
X9184000Y-12192000D01*
X9144000Y-12406000D02*
X9144000Y-12486000D01*
X9104000Y-12446000D02*
X9184000Y-12446000D01*
X9144000Y-12660000D02*
X9144000Y-12740000D01*
X9104000Y-12700000D02*
X9184000Y-12700000D01*
X9144000Y-12914000D02*
X9144000Y-12994000D01*
X9104000Y-12954000D02*
X9184000Y-12954000D01*
X9144000Y-13168000D02*
X9144000Y-13248000D01*
X9104000Y-13208000D02*
X9184000Y-13208000D01*
X9652000Y-14184000D02*
X9652000Y-14264000D01*
X9612000Y-14224000D02*
X9692000Y-14224000D01*
X9652000Y-14438000D02*
X9652000Y-14518000D01*
X9612000Y-14478000D02*
X9692000Y-14478000D01*
X9652000Y-14692000D02*
X9652000Y-14772000D01*
X9612000Y-14732000D02*
X9692000Y-14732000D01*
X9652000Y-14946000D02*
X9652000Y-15026000D01*
X9612000Y-14986000D02*
X9692000Y-14986000D01*
X9652000Y-15200000D02*
X9652000Y-15280000D01*
X9612000Y-15240000D02*
X9692000Y-15240000D01*
X7648737Y-12220737D02*
X7648737Y-12163263D01*
X7591263Y-12163263D01*
X7591263Y-12220737D01*
X7648737Y-12220737D01*
X7648737Y-12474737D02*
X7648737Y-12417263D01*
X7591263Y-12417263D01*
X7591263Y-12474737D01*
X7648737Y-12474737D01*
X7648737Y-12728737D02*
X7648737Y-12671263D01*
X7591263Y-12671263D01*
X7591263Y-12728737D01*
X7648737Y-12728737D01*
X7366000Y-10972038D02*
X7416038Y-10922000D01*
X7366000Y-10871962D01*
X7315962Y-10922000D01*
X7366000Y-10972038D01*
X7366000Y-11734038D02*
X7416038Y-11684000D01*
X7366000Y-11633962D01*
X7315962Y-11684000D01*
X7366000Y-11734038D01*
X7874000Y-10972038D02*
X7924038Y-10922000D01*
X7874000Y-10871962D01*
X7823962Y-10922000D01*
X7874000Y-10972038D01*
X7874000Y-11734038D02*
X7924038Y-11684000D01*
X7874000Y-11633962D01*
X7823962Y-11684000D01*
X7874000Y-11734038D01*
X11430000Y-15036038D02*
X11480038Y-14986000D01*
X11430000Y-14935962D01*
X11379962Y-14986000D01*
X11430000Y-15036038D01*
X11430000Y-15798038D02*
X11480038Y-15748000D01*
X11430000Y-15697962D01*
X11379962Y-15748000D01*
X11430000Y-15798038D01*
X11684000Y-9448038D02*
X11734038Y-9398000D01*
X11684000Y-9347962D01*
X11633962Y-9398000D01*
X11684000Y-9448038D01*
X11684000Y-9956038D02*
X11734038Y-9906000D01*
X11684000Y-9855962D01*
X11633962Y-9906000D01*
X11684000Y-9956038D01*
X11684000Y-10972038D02*
X11734038Y-10922000D01*
X11684000Y-10871962D01*
X11633962Y-10922000D01*
X11684000Y-10972038D01*
X11684000Y-11480038D02*
X11734038Y-11430000D01*
X11684000Y-11379962D01*
X11633962Y-11430000D01*
X11684000Y-11480038D01*
X11684000Y-11988038D02*
X11734038Y-11938000D01*
X11684000Y-11887962D01*
X11633962Y-11938000D01*
X11684000Y-11988038D01*
X11684000Y-12496038D02*
X11734038Y-12446000D01*
X11684000Y-12395962D01*
X11633962Y-12446000D01*
X11684000Y-12496038D01*
X11684000Y-13004038D02*
X11734038Y-12954000D01*
X11684000Y-12903962D01*
X11633962Y-12954000D01*
X11684000Y-13004038D01*
X11684000Y-13512038D02*
X11734038Y-13462000D01*
X11684000Y-13411962D01*
X11633962Y-13462000D01*
X11684000Y-13512038D01*
X12192000Y-15036038D02*
X12242038Y-14986000D01*
X12192000Y-14935962D01*
X12141962Y-14986000D01*
X12192000Y-15036038D01*
X12192000Y-15798038D02*
X12242038Y-15748000D01*
X12192000Y-15697962D01*
X12141962Y-15748000D01*
X12192000Y-15798038D01*
X12446000Y-8940038D02*
X12496038Y-8890000D01*
X12446000Y-8839962D01*
X12395962Y-8890000D01*
X12446000Y-8940038D01*
X12446000Y-9448038D02*
X12496038Y-9398000D01*
X12446000Y-9347962D01*
X12395962Y-9398000D01*
X12446000Y-9448038D01*
X12446000Y-9956038D02*
X12496038Y-9906000D01*
X12446000Y-9855962D01*
X12395962Y-9906000D01*
X12446000Y-9956038D01*
X12446000Y-10464038D02*
X12496038Y-10414000D01*
X12446000Y-10363962D01*
X12395962Y-10414000D01*
X12446000Y-10464038D01*
X12446000Y-11988038D02*
X12496038Y-11938000D01*
X12446000Y-11887962D01*
X12395962Y-11938000D01*
X12446000Y-11988038D01*
X12446000Y-12496038D02*
X12496038Y-12446000D01*
X12446000Y-12395962D01*
X12395962Y-12446000D01*
X12446000Y-12496038D01*
X12446000Y-13004038D02*
X12496038Y-12954000D01*
X12446000Y-12903962D01*
X12395962Y-12954000D01*
X12446000Y-13004038D01*
X12446000Y-13512038D02*
X12496038Y-13462000D01*
X12446000Y-13411962D01*
X12395962Y-13462000D01*
X12446000Y-13512038D01*
X12954000Y-15036038D02*
X13004038Y-14986000D01*
X12954000Y-14935962D01*
X12903962Y-14986000D01*
X12954000Y-15036038D01*
X12954000Y-15798038D02*
X13004038Y-15748000D01*
X12954000Y-15697962D01*
X12903962Y-15748000D01*
X12954000Y-15798038D01*
X13208000Y-8940038D02*
X13258038Y-8890000D01*
X13208000Y-8839962D01*
X13157962Y-8890000D01*
X13208000Y-8940038D01*
X13208000Y-9956038D02*
X13258038Y-9906000D01*
X13208000Y-9855962D01*
X13157962Y-9906000D01*
X13208000Y-9956038D01*
X13208000Y-10464038D02*
X13258038Y-10414000D01*
X13208000Y-10363962D01*
X13157962Y-10414000D01*
X13208000Y-10464038D01*
X13208000Y-10972038D02*
X13258038Y-10922000D01*
X13208000Y-10871962D01*
X13157962Y-10922000D01*
X13208000Y-10972038D01*
X13208000Y-11480038D02*
X13258038Y-11430000D01*
X13208000Y-11379962D01*
X13157962Y-11430000D01*
X13208000Y-11480038D01*
X13208000Y-11988038D02*
X13258038Y-11938000D01*
X13208000Y-11887962D01*
X13157962Y-11938000D01*
X13208000Y-11988038D01*
X13208000Y-12496038D02*
X13258038Y-12446000D01*
X13208000Y-12395962D01*
X13157962Y-12446000D01*
X13208000Y-12496038D01*
X13208000Y-13004038D02*
X13258038Y-12954000D01*
X13208000Y-12903962D01*
X13157962Y-12954000D01*
X13208000Y-13004038D01*
X13208000Y-13512038D02*
X13258038Y-13462000D01*
X13208000Y-13411962D01*
X13157962Y-13462000D01*
X13208000Y-13512038D01*
X13716000Y-15036038D02*
X13766038Y-14986000D01*
X13716000Y-14935962D01*
X13665962Y-14986000D01*
X13716000Y-15036038D01*
X13716000Y-15798038D02*
X13766038Y-15748000D01*
X13716000Y-15697962D01*
X13665962Y-15748000D01*
X13716000Y-15798038D01*
X13970000Y-9448038D02*
X14020038Y-9398000D01*
X13970000Y-9347962D01*
X13919962Y-9398000D01*
X13970000Y-9448038D01*
X13970000Y-9956038D02*
X14020038Y-9906000D01*
X13970000Y-9855962D01*
X13919962Y-9906000D01*
X13970000Y-9956038D01*
X13970000Y-10972038D02*
X14020038Y-10922000D01*
X13970000Y-10871962D01*
X13919962Y-10922000D01*
X13970000Y-10972038D01*
X13970000Y-11480038D02*
X14020038Y-11430000D01*
X13970000Y-11379962D01*
X13919962Y-11430000D01*
X13970000Y-11480038D01*
X13970000Y-12496038D02*
X14020038Y-12446000D01*
X13970000Y-12395962D01*
X13919962Y-12446000D01*
X13970000Y-12496038D01*
X13970000Y-13004038D02*
X14020038Y-12954000D01*
X13970000Y-12903962D01*
X13919962Y-12954000D01*
X13970000Y-13004038D01*
X13970000Y-13512038D02*
X14020038Y-13462000D01*
X13970000Y-13411962D01*
X13919962Y-13462000D01*
X13970000Y-13512038D01*
X14478000Y-15036038D02*
X14528038Y-14986000D01*
X14478000Y-14935962D01*
X14427962Y-14986000D01*
X14478000Y-15036038D01*
X14478000Y-15798038D02*
X14528038Y-15748000D01*
X14478000Y-15697962D01*
X14427962Y-15748000D01*
X14478000Y-15798038D01*
X14732000Y-9448038D02*
X14782038Y-9398000D01*
X14732000Y-9347962D01*
X14681962Y-9398000D01*
X14732000Y-9448038D01*
X14732000Y-11480038D02*
X14782038Y-11430000D01*
X14732000Y-11379962D01*
X14681962Y-11430000D01*
X14732000Y-11480038D01*
X14732000Y-12496038D02*
X14782038Y-12446000D01*
X14732000Y-12395962D01*
X14681962Y-12446000D01*
X14732000Y-12496038D01*
X14732000Y-13512038D02*
X14782038Y-13462000D01*
X14732000Y-13411962D01*
X14681962Y-13462000D01*
X14732000Y-13512038D01*
X15240000Y-15036038D02*
X15290038Y-14986000D01*
X15240000Y-14935962D01*
X15189962Y-14986000D01*
X15240000Y-15036038D01*
X15240000Y-15798038D02*
X15290038Y-15748000D01*
X15240000Y-15697962D01*
X15189962Y-15748000D01*
X15240000Y-15798038D01*
X15494000Y-10464038D02*
X15544038Y-10414000D01*
X15494000Y-10363962D01*
X15443962Y-10414000D01*
X15494000Y-10464038D01*
X15494000Y-10972038D02*
X15544038Y-10922000D01*
X15494000Y-10871962D01*
X15443962Y-10922000D01*
X15494000Y-10972038D01*
X15494000Y-11480038D02*
X15544038Y-11430000D01*
X15494000Y-11379962D01*
X15443962Y-11430000D01*
X15494000Y-11480038D01*
X15494000Y-12496038D02*
X15544038Y-12446000D01*
X15494000Y-12395962D01*
X15443962Y-12446000D01*
X15494000Y-12496038D01*
X15494000Y-13004038D02*
X15544038Y-12954000D01*
X15494000Y-12903962D01*
X15443962Y-12954000D01*
X15494000Y-13004038D01*
X15494000Y-13512038D02*
X15544038Y-13462000D01*
X15494000Y-13411962D01*
X15443962Y-13462000D01*
X15494000Y-13512038D01*
X16002000Y-15036038D02*
X16052038Y-14986000D01*
X16002000Y-14935962D01*
X15951962Y-14986000D01*
X16002000Y-15036038D01*
X16002000Y-15798038D02*
X16052038Y-15748000D01*
X16002000Y-15697962D01*
X15951962Y-15748000D01*
X16002000Y-15798038D01*
X16256000Y-9448038D02*
X16306038Y-9398000D01*
X16256000Y-9347962D01*
X16205962Y-9398000D01*
X16256000Y-9448038D01*
X16256000Y-9956038D02*
X16306038Y-9906000D01*
X16256000Y-9855962D01*
X16205962Y-9906000D01*
X16256000Y-9956038D01*
X16256000Y-10464038D02*
X16306038Y-10414000D01*
X16256000Y-10363962D01*
X16205962Y-10414000D01*
X16256000Y-10464038D01*
X16256000Y-10972038D02*
X16306038Y-10922000D01*
X16256000Y-10871962D01*
X16205962Y-10922000D01*
X16256000Y-10972038D01*
X16256000Y-11480038D02*
X16306038Y-11430000D01*
X16256000Y-11379962D01*
X16205962Y-11430000D01*
X16256000Y-11480038D01*
X16256000Y-12496038D02*
X16306038Y-12446000D01*
X16256000Y-12395962D01*
X16205962Y-12446000D01*
X16256000Y-12496038D01*
X16256000Y-13004038D02*
X16306038Y-12954000D01*
X16256000Y-12903962D01*
X16205962Y-12954000D01*
X16256000Y-13004038D01*
X7061200Y-8839200D02*
X7162800Y-8940800D01*
X7162800Y-8839200D02*
X7061200Y-8940800D01*
X7162800Y-8890000D02*
G75*
G03X7162800Y-8890000I-50800J0D01*
G01*
X7061200Y-9093200D02*
X7162800Y-9194800D01*
X7162800Y-9093200D02*
X7061200Y-9194800D01*
X7162800Y-9144000D02*
G75*
G03X7162800Y-9144000I-50800J0D01*
G01*
X7569200Y-13411200D02*
X7670800Y-13512800D01*
X7670800Y-13411200D02*
X7569200Y-13512800D01*
X7670800Y-13462000D02*
G75*
G03X7670800Y-13462000I-50800J0D01*
G01*
X10363200Y-10363200D02*
X10464800Y-10464800D01*
X10464800Y-10363200D02*
X10363200Y-10464800D01*
X10464800Y-10414000D02*
G75*
G03X10464800Y-10414000I-50800J0D01*
G01*
X10363200Y-10617200D02*
X10464800Y-10718800D01*
X10464800Y-10617200D02*
X10363200Y-10718800D01*
X10464800Y-10668000D02*
G75*
G03X10464800Y-10668000I-50800J0D01*
G01*
X10363200Y-10871200D02*
X10464800Y-10972800D01*
X10464800Y-10871200D02*
X10363200Y-10972800D01*
X10464800Y-10922000D02*
G75*
G03X10464800Y-10922000I-50800J0D01*
G01*
X10363200Y-11125200D02*
X10464800Y-11226800D01*
X10464800Y-11125200D02*
X10363200Y-11226800D01*
X10464800Y-11176000D02*
G75*
G03X10464800Y-11176000I-50800J0D01*
G01*
X10363200Y-11379200D02*
X10464800Y-11480800D01*
X10464800Y-11379200D02*
X10363200Y-11480800D01*
X10464800Y-11430000D02*
G75*
G03X10464800Y-11430000I-50800J0D01*
G01*
X10363200Y-11633200D02*
X10464800Y-11734800D01*
X10464800Y-11633200D02*
X10363200Y-11734800D01*
X10464800Y-11684000D02*
G75*
G03X10464800Y-11684000I-50800J0D01*
G01*
X10363200Y-11887200D02*
X10464800Y-11988800D01*
X10464800Y-11887200D02*
X10363200Y-11988800D01*
X10464800Y-11938000D02*
G75*
G03X10464800Y-11938000I-50800J0D01*
G01*
X10363200Y-12141200D02*
X10464800Y-12242800D01*
X10464800Y-12141200D02*
X10363200Y-12242800D01*
X10464800Y-12192000D02*
G75*
G03X10464800Y-12192000I-50800J0D01*
G01*
X10363200Y-12395200D02*
X10464800Y-12496800D01*
X10464800Y-12395200D02*
X10363200Y-12496800D01*
X10464800Y-12446000D02*
G75*
G03X10464800Y-12446000I-50800J0D01*
G01*
X10363200Y-12649200D02*
X10464800Y-12750800D01*
X10464800Y-12649200D02*
X10363200Y-12750800D01*
X10464800Y-12700000D02*
G75*
G03X10464800Y-12700000I-50800J0D01*
G01*
X11239500Y-9334500D02*
X11366500Y-9461500D01*
X11366500Y-9334500D02*
X11239500Y-9461500D01*
X11303000Y-9334500D02*
X11303000Y-9461500D01*
X11239500Y-9398000D02*
X11366500Y-9398000D01*
X11239500Y-9842500D02*
X11366500Y-9969500D01*
X11366500Y-9842500D02*
X11239500Y-9969500D01*
X11303000Y-9842500D02*
X11303000Y-9969500D01*
X11239500Y-9906000D02*
X11366500Y-9906000D01*
X11239500Y-10858500D02*
X11366500Y-10985500D01*
X11366500Y-10858500D02*
X11239500Y-10985500D01*
X11303000Y-10858500D02*
X11303000Y-10985500D01*
X11239500Y-10922000D02*
X11366500Y-10922000D01*
X11239500Y-11366500D02*
X11366500Y-11493500D01*
X11366500Y-11366500D02*
X11239500Y-11493500D01*
X11303000Y-11366500D02*
X11303000Y-11493500D01*
X11239500Y-11430000D02*
X11366500Y-11430000D01*
X11239500Y-11874500D02*
X11366500Y-12001500D01*
X11366500Y-11874500D02*
X11239500Y-12001500D01*
X11303000Y-11874500D02*
X11303000Y-12001500D01*
X11239500Y-11938000D02*
X11366500Y-11938000D01*
X11239500Y-12382500D02*
X11366500Y-12509500D01*
X11366500Y-12382500D02*
X11239500Y-12509500D01*
X11303000Y-12382500D02*
X11303000Y-12509500D01*
X11239500Y-12446000D02*
X11366500Y-12446000D01*
X11239500Y-12890500D02*
X11366500Y-13017500D01*
X11366500Y-12890500D02*
X11239500Y-13017500D01*
X11303000Y-12890500D02*
X11303000Y-13017500D01*
X11239500Y-12954000D02*
X11366500Y-12954000D01*
X11239500Y-13398500D02*
X11366500Y-13525500D01*
X11366500Y-13398500D02*
X11239500Y-13525500D01*
X11303000Y-13398500D02*
X11303000Y-13525500D01*
X11239500Y-13462000D02*
X11366500Y-13462000D01*
X12001500Y-8826500D02*
X12128500Y-8953500D01*
X12128500Y-8826500D02*
X12001500Y-8953500D01*
X12065000Y-8826500D02*
X12065000Y-8953500D01*
X12001500Y-8890000D02*
X12128500Y-8890000D01*
X12001500Y-9334500D02*
X12128500Y-9461500D01*
X12128500Y-9334500D02*
X12001500Y-9461500D01*
X12065000Y-9334500D02*
X12065000Y-9461500D01*
X12001500Y-9398000D02*
X12128500Y-9398000D01*
X12001500Y-9842500D02*
X12128500Y-9969500D01*
X12128500Y-9842500D02*
X12001500Y-9969500D01*
X12065000Y-9842500D02*
X12065000Y-9969500D01*
X12001500Y-9906000D02*
X12128500Y-9906000D01*
X12001500Y-10350500D02*
X12128500Y-10477500D01*
X12128500Y-10350500D02*
X12001500Y-10477500D01*
X12065000Y-10350500D02*
X12065000Y-10477500D01*
X12001500Y-10414000D02*
X12128500Y-10414000D01*
X12001500Y-11874500D02*
X12128500Y-12001500D01*
X12128500Y-11874500D02*
X12001500Y-12001500D01*
X12065000Y-11874500D02*
X12065000Y-12001500D01*
X12001500Y-11938000D02*
X12128500Y-11938000D01*
X12001500Y-12382500D02*
X12128500Y-12509500D01*
X12128500Y-12382500D02*
X12001500Y-12509500D01*
X12065000Y-12382500D02*
X12065000Y-12509500D01*
X12001500Y-12446000D02*
X12128500Y-12446000D01*
X12001500Y-12890500D02*
X12128500Y-13017500D01*
X12128500Y-12890500D02*
X12001500Y-13017500D01*
X12065000Y-12890500D02*
X12065000Y-13017500D01*
X12001500Y-12954000D02*
X12128500Y-12954000D01*
X12001500Y-13398500D02*
X12128500Y-13525500D01*
X12128500Y-13398500D02*
X12001500Y-13525500D01*
X12065000Y-13398500D02*
X12065000Y-13525500D01*
X12001500Y-13462000D02*
X12128500Y-13462000D01*
X12763500Y-8826500D02*
X12890500Y-8953500D01*
X12890500Y-8826500D02*
X12763500Y-8953500D01*
X12827000Y-8826500D02*
X12827000Y-8953500D01*
X12763500Y-8890000D02*
X12890500Y-8890000D01*
X12763500Y-9842500D02*
X12890500Y-9969500D01*
X12890500Y-9842500D02*
X12763500Y-9969500D01*
X12827000Y-9842500D02*
X12827000Y-9969500D01*
X12763500Y-9906000D02*
X12890500Y-9906000D01*
X12763500Y-10350500D02*
X12890500Y-10477500D01*
X12890500Y-10350500D02*
X12763500Y-10477500D01*
X12827000Y-10350500D02*
X12827000Y-10477500D01*
X12763500Y-10414000D02*
X12890500Y-10414000D01*
X12763500Y-10858500D02*
X12890500Y-10985500D01*
X12890500Y-10858500D02*
X12763500Y-10985500D01*
X12827000Y-10858500D02*
X12827000Y-10985500D01*
X12763500Y-10922000D02*
X12890500Y-10922000D01*
X12763500Y-11366500D02*
X12890500Y-11493500D01*
X12890500Y-11366500D02*
X12763500Y-11493500D01*
X12827000Y-11366500D02*
X12827000Y-11493500D01*
X12763500Y-11430000D02*
X12890500Y-11430000D01*
X12763500Y-11874500D02*
X12890500Y-12001500D01*
X12890500Y-11874500D02*
X12763500Y-12001500D01*
X12827000Y-11874500D02*
X12827000Y-12001500D01*
X12763500Y-11938000D02*
X12890500Y-11938000D01*
X12763500Y-12382500D02*
X12890500Y-12509500D01*
X12890500Y-12382500D02*
X12763500Y-12509500D01*
X12827000Y-12382500D02*
X12827000Y-12509500D01*
X12763500Y-12446000D02*
X12890500Y-12446000D01*
X12763500Y-12890500D02*
X12890500Y-13017500D01*
X12890500Y-12890500D02*
X12763500Y-13017500D01*
X12827000Y-12890500D02*
X12827000Y-13017500D01*
X12763500Y-12954000D02*
X12890500Y-12954000D01*
X12763500Y-13398500D02*
X12890500Y-13525500D01*
X12890500Y-13398500D02*
X12763500Y-13525500D01*
X12827000Y-13398500D02*
X12827000Y-13525500D01*
X12763500Y-13462000D02*
X12890500Y-13462000D01*
X13525500Y-9334500D02*
X13652500Y-9461500D01*
X13652500Y-9334500D02*
X13525500Y-9461500D01*
X13589000Y-9334500D02*
X13589000Y-9461500D01*
X13525500Y-9398000D02*
X13652500Y-9398000D01*
X13525500Y-9842500D02*
X13652500Y-9969500D01*
X13652500Y-9842500D02*
X13525500Y-9969500D01*
X13589000Y-9842500D02*
X13589000Y-9969500D01*
X13525500Y-9906000D02*
X13652500Y-9906000D01*
X13525500Y-10858500D02*
X13652500Y-10985500D01*
X13652500Y-10858500D02*
X13525500Y-10985500D01*
X13589000Y-10858500D02*
X13589000Y-10985500D01*
X13525500Y-10922000D02*
X13652500Y-10922000D01*
X13525500Y-11366500D02*
X13652500Y-11493500D01*
X13652500Y-11366500D02*
X13525500Y-11493500D01*
X13589000Y-11366500D02*
X13589000Y-11493500D01*
X13525500Y-11430000D02*
X13652500Y-11430000D01*
X13525500Y-12382500D02*
X13652500Y-12509500D01*
X13652500Y-12382500D02*
X13525500Y-12509500D01*
X13589000Y-12382500D02*
X13589000Y-12509500D01*
X13525500Y-12446000D02*
X13652500Y-12446000D01*
X13525500Y-12890500D02*
X13652500Y-13017500D01*
X13652500Y-12890500D02*
X13525500Y-13017500D01*
X13589000Y-12890500D02*
X13589000Y-13017500D01*
X13525500Y-12954000D02*
X13652500Y-12954000D01*
X13525500Y-13398500D02*
X13652500Y-13525500D01*
X13652500Y-13398500D02*
X13525500Y-13525500D01*
X13589000Y-13398500D02*
X13589000Y-13525500D01*
X13525500Y-13462000D02*
X13652500Y-13462000D01*
X14287500Y-9334500D02*
X14414500Y-9461500D01*
X14414500Y-9334500D02*
X14287500Y-9461500D01*
X14351000Y-9334500D02*
X14351000Y-9461500D01*
X14287500Y-9398000D02*
X14414500Y-9398000D01*
X14287500Y-11366500D02*
X14414500Y-11493500D01*
X14414500Y-11366500D02*
X14287500Y-11493500D01*
X14351000Y-11366500D02*
X14351000Y-11493500D01*
X14287500Y-11430000D02*
X14414500Y-11430000D01*
X14287500Y-12382500D02*
X14414500Y-12509500D01*
X14414500Y-12382500D02*
X14287500Y-12509500D01*
X14351000Y-12382500D02*
X14351000Y-12509500D01*
X14287500Y-12446000D02*
X14414500Y-12446000D01*
X14287500Y-13398500D02*
X14414500Y-13525500D01*
X14414500Y-13398500D02*
X14287500Y-13525500D01*
X14351000Y-13398500D02*
X14351000Y-13525500D01*
X14287500Y-13462000D02*
X14414500Y-13462000D01*
X15049500Y-10350500D02*
X15176500Y-10477500D01*
X15176500Y-10350500D02*
X15049500Y-10477500D01*
X15113000Y-10350500D02*
X15113000Y-10477500D01*
X15049500Y-10414000D02*
X15176500Y-10414000D01*
X15049500Y-10858500D02*
X15176500Y-10985500D01*
X15176500Y-10858500D02*
X15049500Y-10985500D01*
X15113000Y-10858500D02*
X15113000Y-10985500D01*
X15049500Y-10922000D02*
X15176500Y-10922000D01*
X15049500Y-11366500D02*
X15176500Y-11493500D01*
X15176500Y-11366500D02*
X15049500Y-11493500D01*
X15113000Y-11366500D02*
X15113000Y-11493500D01*
X15049500Y-11430000D02*
X15176500Y-11430000D01*
X15049500Y-12382500D02*
X15176500Y-12509500D01*
X15176500Y-12382500D02*
X15049500Y-12509500D01*
X15113000Y-12382500D02*
X15113000Y-12509500D01*
X15049500Y-12446000D02*
X15176500Y-12446000D01*
X15049500Y-12890500D02*
X15176500Y-13017500D01*
X15176500Y-12890500D02*
X15049500Y-13017500D01*
X15113000Y-12890500D02*
X15113000Y-13017500D01*
X15049500Y-12954000D02*
X15176500Y-12954000D01*
X15049500Y-13398500D02*
X15176500Y-13525500D01*
X15176500Y-13398500D02*
X15049500Y-13525500D01*
X15113000Y-13398500D02*
X15113000Y-13525500D01*
X15049500Y-13462000D02*
X15176500Y-13462000D01*
X15811500Y-9334500D02*
X15938500Y-9461500D01*
X15938500Y-9334500D02*
X15811500Y-9461500D01*
X15875000Y-9334500D02*
X15875000Y-9461500D01*
X15811500Y-9398000D02*
X15938500Y-9398000D01*
X15811500Y-9842500D02*
X15938500Y-9969500D01*
X15938500Y-9842500D02*
X15811500Y-9969500D01*
X15875000Y-9842500D02*
X15875000Y-9969500D01*
X15811500Y-9906000D02*
X15938500Y-9906000D01*
X15811500Y-10350500D02*
X15938500Y-10477500D01*
X15938500Y-10350500D02*
X15811500Y-10477500D01*
X15875000Y-10350500D02*
X15875000Y-10477500D01*
X15811500Y-10414000D02*
X15938500Y-10414000D01*
X15811500Y-10858500D02*
X15938500Y-10985500D01*
X15938500Y-10858500D02*
X15811500Y-10985500D01*
X15875000Y-10858500D02*
X15875000Y-10985500D01*
X15811500Y-10922000D02*
X15938500Y-10922000D01*
X15811500Y-11366500D02*
X15938500Y-11493500D01*
X15938500Y-11366500D02*
X15811500Y-11493500D01*
X15875000Y-11366500D02*
X15875000Y-11493500D01*
X15811500Y-11430000D02*
X15938500Y-11430000D01*
X15811500Y-12382500D02*
X15938500Y-12509500D01*
X15938500Y-12382500D02*
X15811500Y-12509500D01*
X15875000Y-12382500D02*
X15875000Y-12509500D01*
X15811500Y-12446000D02*
X15938500Y-12446000D01*
X15811500Y-12890500D02*
X15938500Y-13017500D01*
X15938500Y-12890500D02*
X15811500Y-13017500D01*
X15875000Y-12890500D02*
X15875000Y-13017500D01*
X15811500Y-12954000D02*
X15938500Y-12954000D01*
D13*
X7121928Y-16729214D02*
X7121928Y-16429214D01*
X7193357Y-16429214D01*
X7236214Y-16443500D01*
X7264786Y-16472071D01*
X7279071Y-16500643D01*
X7293357Y-16557786D01*
X7293357Y-16600643D01*
X7279071Y-16657786D01*
X7264786Y-16686357D01*
X7236214Y-16714929D01*
X7193357Y-16729214D01*
X7121928Y-16729214D01*
X7421928Y-16729214D02*
X7421928Y-16529214D01*
X7421928Y-16586357D02*
X7436214Y-16557786D01*
X7450500Y-16543500D01*
X7479071Y-16529214D01*
X7507643Y-16529214D01*
X7607643Y-16729214D02*
X7607643Y-16529214D01*
X7607643Y-16429214D02*
X7593357Y-16443500D01*
X7607643Y-16457786D01*
X7621928Y-16443500D01*
X7607643Y-16429214D01*
X7607643Y-16457786D01*
X7793357Y-16729214D02*
X7764786Y-16714929D01*
X7750500Y-16686357D01*
X7750500Y-16429214D01*
X7950500Y-16729214D02*
X7921928Y-16714929D01*
X7907643Y-16686357D01*
X7907643Y-16429214D01*
X8293357Y-16729214D02*
X8293357Y-16429214D01*
X8393357Y-16643500D01*
X8493357Y-16429214D01*
X8493357Y-16729214D01*
X8764786Y-16729214D02*
X8764786Y-16572071D01*
X8750500Y-16543500D01*
X8721929Y-16529214D01*
X8664786Y-16529214D01*
X8636214Y-16543500D01*
X8764786Y-16714929D02*
X8736214Y-16729214D01*
X8664786Y-16729214D01*
X8636214Y-16714929D01*
X8621929Y-16686357D01*
X8621929Y-16657786D01*
X8636214Y-16629214D01*
X8664786Y-16614929D01*
X8736214Y-16614929D01*
X8764786Y-16600643D01*
X8907643Y-16529214D02*
X8907643Y-16829214D01*
X8907643Y-16543500D02*
X8936214Y-16529214D01*
X8993357Y-16529214D01*
X9021929Y-16543500D01*
X9036214Y-16557786D01*
X9050500Y-16586357D01*
X9050500Y-16672071D01*
X9036214Y-16700643D01*
X9021929Y-16714929D01*
X8993357Y-16729214D01*
X8936214Y-16729214D01*
X8907643Y-16714929D01*
X9179071Y-16700643D02*
X9193357Y-16714929D01*
X9179071Y-16729214D01*
X9164786Y-16714929D01*
X9179071Y-16700643D01*
X9179071Y-16729214D01*
X9179071Y-16543500D02*
X9193357Y-16557786D01*
X9179071Y-16572071D01*
X9164786Y-16557786D01*
X9179071Y-16543500D01*
X9179071Y-16572071D01*
X6810500Y-17203500D02*
X6850500Y-17243500D01*
X6850500Y-17203500D02*
X6810500Y-17243500D01*
X7179071Y-17059214D02*
X7207643Y-17059214D01*
X7236214Y-17073500D01*
X7250500Y-17087786D01*
X7264786Y-17116357D01*
X7279071Y-17173500D01*
X7279071Y-17244929D01*
X7264786Y-17302072D01*
X7250500Y-17330643D01*
X7236214Y-17344929D01*
X7207643Y-17359214D01*
X7179071Y-17359214D01*
X7150500Y-17344929D01*
X7136214Y-17330643D01*
X7121928Y-17302072D01*
X7107643Y-17244929D01*
X7107643Y-17173500D01*
X7121928Y-17116357D01*
X7136214Y-17087786D01*
X7150500Y-17073500D01*
X7179071Y-17059214D01*
X7407643Y-17330643D02*
X7421928Y-17344929D01*
X7407643Y-17359214D01*
X7393357Y-17344929D01*
X7407643Y-17330643D01*
X7407643Y-17359214D01*
X7679071Y-17159214D02*
X7679071Y-17359214D01*
X7607643Y-17044929D02*
X7536214Y-17259214D01*
X7721928Y-17259214D01*
X7893357Y-17059214D02*
X7921928Y-17059214D01*
X7950500Y-17073500D01*
X7964786Y-17087786D01*
X7979071Y-17116357D01*
X7993357Y-17173500D01*
X7993357Y-17244929D01*
X7979071Y-17302072D01*
X7964786Y-17330643D01*
X7950500Y-17344929D01*
X7921928Y-17359214D01*
X7893357Y-17359214D01*
X7864786Y-17344929D01*
X7850500Y-17330643D01*
X7836214Y-17302072D01*
X7821928Y-17244929D01*
X7821928Y-17173500D01*
X7836214Y-17116357D01*
X7850500Y-17087786D01*
X7864786Y-17073500D01*
X7893357Y-17059214D01*
X8121928Y-17359214D02*
X8121928Y-17159214D01*
X8121928Y-17187786D02*
X8136214Y-17173500D01*
X8164786Y-17159214D01*
X8207643Y-17159214D01*
X8236214Y-17173500D01*
X8250500Y-17202072D01*
X8250500Y-17359214D01*
X8250500Y-17202072D02*
X8264786Y-17173500D01*
X8293357Y-17159214D01*
X8336214Y-17159214D01*
X8364786Y-17173500D01*
X8379071Y-17202072D01*
X8379071Y-17359214D01*
X8521929Y-17359214D02*
X8521929Y-17159214D01*
X8521929Y-17187786D02*
X8536214Y-17173500D01*
X8564786Y-17159214D01*
X8607643Y-17159214D01*
X8636214Y-17173500D01*
X8650500Y-17202072D01*
X8650500Y-17359214D01*
X8650500Y-17202072D02*
X8664786Y-17173500D01*
X8693357Y-17159214D01*
X8736214Y-17159214D01*
X8764786Y-17173500D01*
X8779071Y-17202072D01*
X8779071Y-17359214D01*
X9364786Y-17044929D02*
X9107643Y-17430643D01*
X9750500Y-17059214D02*
X9779071Y-17059214D01*
X9807643Y-17073500D01*
X9821928Y-17087786D01*
X9836214Y-17116357D01*
X9850500Y-17173500D01*
X9850500Y-17244929D01*
X9836214Y-17302072D01*
X9821928Y-17330643D01*
X9807643Y-17344929D01*
X9779071Y-17359214D01*
X9750500Y-17359214D01*
X9721928Y-17344929D01*
X9707643Y-17330643D01*
X9693357Y-17302072D01*
X9679071Y-17244929D01*
X9679071Y-17173500D01*
X9693357Y-17116357D01*
X9707643Y-17087786D01*
X9721928Y-17073500D01*
X9750500Y-17059214D01*
X9979071Y-17330643D02*
X9993357Y-17344929D01*
X9979071Y-17359214D01*
X9964786Y-17344929D01*
X9979071Y-17330643D01*
X9979071Y-17359214D01*
X10179071Y-17059214D02*
X10207643Y-17059214D01*
X10236214Y-17073500D01*
X10250500Y-17087786D01*
X10264786Y-17116357D01*
X10279071Y-17173500D01*
X10279071Y-17244929D01*
X10264786Y-17302072D01*
X10250500Y-17330643D01*
X10236214Y-17344929D01*
X10207643Y-17359214D01*
X10179071Y-17359214D01*
X10150500Y-17344929D01*
X10136214Y-17330643D01*
X10121928Y-17302072D01*
X10107643Y-17244929D01*
X10107643Y-17173500D01*
X10121928Y-17116357D01*
X10136214Y-17087786D01*
X10150500Y-17073500D01*
X10179071Y-17059214D01*
X10564786Y-17359214D02*
X10393357Y-17359214D01*
X10479071Y-17359214D02*
X10479071Y-17059214D01*
X10450500Y-17102072D01*
X10421928Y-17130643D01*
X10393357Y-17144929D01*
X10821928Y-17059214D02*
X10764786Y-17059214D01*
X10736214Y-17073500D01*
X10721928Y-17087786D01*
X10693357Y-17130643D01*
X10679071Y-17187786D01*
X10679071Y-17302072D01*
X10693357Y-17330643D01*
X10707643Y-17344929D01*
X10736214Y-17359214D01*
X10793357Y-17359214D01*
X10821928Y-17344929D01*
X10836214Y-17330643D01*
X10850500Y-17302072D01*
X10850500Y-17230643D01*
X10836214Y-17202072D01*
X10821928Y-17187786D01*
X10793357Y-17173500D01*
X10736214Y-17173500D01*
X10707643Y-17187786D01*
X10693357Y-17202072D01*
X10679071Y-17230643D01*
X10964786Y-17059214D02*
X10964786Y-17116357D01*
X11079071Y-17059214D02*
X11079071Y-17116357D01*
X11521928Y-17473500D02*
X11507643Y-17459214D01*
X11479071Y-17416357D01*
X11464785Y-17387786D01*
X11450500Y-17344929D01*
X11436214Y-17273500D01*
X11436214Y-17216357D01*
X11450500Y-17144929D01*
X11464785Y-17102072D01*
X11479071Y-17073500D01*
X11507643Y-17030643D01*
X11521928Y-17016357D01*
X11793357Y-17359214D02*
X11621928Y-17359214D01*
X11707643Y-17359214D02*
X11707643Y-17059214D01*
X11679071Y-17102072D01*
X11650500Y-17130643D01*
X11621928Y-17144929D01*
X11907643Y-17087786D02*
X11921928Y-17073500D01*
X11950500Y-17059214D01*
X12021928Y-17059214D01*
X12050500Y-17073500D01*
X12064785Y-17087786D01*
X12079071Y-17116357D01*
X12079071Y-17144929D01*
X12064785Y-17187786D01*
X11893357Y-17359214D01*
X12079071Y-17359214D01*
X12436214Y-17359214D02*
X12436214Y-17059214D01*
X12564785Y-17359214D02*
X12564785Y-17202072D01*
X12550500Y-17173500D01*
X12521928Y-17159214D01*
X12479071Y-17159214D01*
X12450500Y-17173500D01*
X12436214Y-17187786D01*
X12750500Y-17359214D02*
X12721928Y-17344929D01*
X12707643Y-17330643D01*
X12693357Y-17302072D01*
X12693357Y-17216357D01*
X12707643Y-17187786D01*
X12721928Y-17173500D01*
X12750500Y-17159214D01*
X12793357Y-17159214D01*
X12821928Y-17173500D01*
X12836214Y-17187786D01*
X12850500Y-17216357D01*
X12850500Y-17302072D01*
X12836214Y-17330643D01*
X12821928Y-17344929D01*
X12793357Y-17359214D01*
X12750500Y-17359214D01*
X13021928Y-17359214D02*
X12993357Y-17344929D01*
X12979071Y-17316357D01*
X12979071Y-17059214D01*
X13250500Y-17344929D02*
X13221928Y-17359214D01*
X13164786Y-17359214D01*
X13136214Y-17344929D01*
X13121928Y-17316357D01*
X13121928Y-17202072D01*
X13136214Y-17173500D01*
X13164786Y-17159214D01*
X13221928Y-17159214D01*
X13250500Y-17173500D01*
X13264786Y-17202072D01*
X13264786Y-17230643D01*
X13121928Y-17259214D01*
X13379071Y-17344929D02*
X13407643Y-17359214D01*
X13464786Y-17359214D01*
X13493357Y-17344929D01*
X13507643Y-17316357D01*
X13507643Y-17302072D01*
X13493357Y-17273500D01*
X13464786Y-17259214D01*
X13421928Y-17259214D01*
X13393357Y-17244929D01*
X13379071Y-17216357D01*
X13379071Y-17202072D01*
X13393357Y-17173500D01*
X13421928Y-17159214D01*
X13464786Y-17159214D01*
X13493357Y-17173500D01*
X13607643Y-17473500D02*
X13621928Y-17459214D01*
X13650500Y-17416357D01*
X13664786Y-17387786D01*
X13679071Y-17344929D01*
X13693357Y-17273500D01*
X13693357Y-17216357D01*
X13679071Y-17144929D01*
X13664786Y-17102072D01*
X13650500Y-17073500D01*
X13621928Y-17030643D01*
X13607643Y-17016357D01*
X6850500Y-17619500D02*
G75*
G03X6850500Y-17619500I-30000J0D01*
G01*
X7179071Y-17455214D02*
X7207643Y-17455214D01*
X7236214Y-17469500D01*
X7250500Y-17483786D01*
X7264786Y-17512357D01*
X7279071Y-17569500D01*
X7279071Y-17640929D01*
X7264786Y-17698072D01*
X7250500Y-17726643D01*
X7236214Y-17740929D01*
X7207643Y-17755214D01*
X7179071Y-17755214D01*
X7150500Y-17740929D01*
X7136214Y-17726643D01*
X7121928Y-17698072D01*
X7107643Y-17640929D01*
X7107643Y-17569500D01*
X7121928Y-17512357D01*
X7136214Y-17483786D01*
X7150500Y-17469500D01*
X7179071Y-17455214D01*
X7407643Y-17726643D02*
X7421928Y-17740929D01*
X7407643Y-17755214D01*
X7393357Y-17740929D01*
X7407643Y-17726643D01*
X7407643Y-17755214D01*
X7679071Y-17455214D02*
X7621928Y-17455214D01*
X7593357Y-17469500D01*
X7579071Y-17483786D01*
X7550500Y-17526643D01*
X7536214Y-17583786D01*
X7536214Y-17698072D01*
X7550500Y-17726643D01*
X7564786Y-17740929D01*
X7593357Y-17755214D01*
X7650500Y-17755214D01*
X7679071Y-17740929D01*
X7693357Y-17726643D01*
X7707643Y-17698072D01*
X7707643Y-17626643D01*
X7693357Y-17598072D01*
X7679071Y-17583786D01*
X7650500Y-17569500D01*
X7593357Y-17569500D01*
X7564786Y-17583786D01*
X7550500Y-17598072D01*
X7536214Y-17626643D01*
X7893357Y-17455214D02*
X7921928Y-17455214D01*
X7950500Y-17469500D01*
X7964786Y-17483786D01*
X7979071Y-17512357D01*
X7993357Y-17569500D01*
X7993357Y-17640929D01*
X7979071Y-17698072D01*
X7964786Y-17726643D01*
X7950500Y-17740929D01*
X7921928Y-17755214D01*
X7893357Y-17755214D01*
X7864786Y-17740929D01*
X7850500Y-17726643D01*
X7836214Y-17698072D01*
X7821928Y-17640929D01*
X7821928Y-17569500D01*
X7836214Y-17512357D01*
X7850500Y-17483786D01*
X7864786Y-17469500D01*
X7893357Y-17455214D01*
X8121928Y-17755214D02*
X8121928Y-17555214D01*
X8121928Y-17583786D02*
X8136214Y-17569500D01*
X8164786Y-17555214D01*
X8207643Y-17555214D01*
X8236214Y-17569500D01*
X8250500Y-17598072D01*
X8250500Y-17755214D01*
X8250500Y-17598072D02*
X8264786Y-17569500D01*
X8293357Y-17555214D01*
X8336214Y-17555214D01*
X8364786Y-17569500D01*
X8379071Y-17598072D01*
X8379071Y-17755214D01*
X8521929Y-17755214D02*
X8521929Y-17555214D01*
X8521929Y-17583786D02*
X8536214Y-17569500D01*
X8564786Y-17555214D01*
X8607643Y-17555214D01*
X8636214Y-17569500D01*
X8650500Y-17598072D01*
X8650500Y-17755214D01*
X8650500Y-17598072D02*
X8664786Y-17569500D01*
X8693357Y-17555214D01*
X8736214Y-17555214D01*
X8764786Y-17569500D01*
X8779071Y-17598072D01*
X8779071Y-17755214D01*
X9364786Y-17440929D02*
X9107643Y-17826643D01*
X9750500Y-17455214D02*
X9779071Y-17455214D01*
X9807643Y-17469500D01*
X9821928Y-17483786D01*
X9836214Y-17512357D01*
X9850500Y-17569500D01*
X9850500Y-17640929D01*
X9836214Y-17698072D01*
X9821928Y-17726643D01*
X9807643Y-17740929D01*
X9779071Y-17755214D01*
X9750500Y-17755214D01*
X9721928Y-17740929D01*
X9707643Y-17726643D01*
X9693357Y-17698072D01*
X9679071Y-17640929D01*
X9679071Y-17569500D01*
X9693357Y-17512357D01*
X9707643Y-17483786D01*
X9721928Y-17469500D01*
X9750500Y-17455214D01*
X9979071Y-17726643D02*
X9993357Y-17740929D01*
X9979071Y-17755214D01*
X9964786Y-17740929D01*
X9979071Y-17726643D01*
X9979071Y-17755214D01*
X10179071Y-17455214D02*
X10207643Y-17455214D01*
X10236214Y-17469500D01*
X10250500Y-17483786D01*
X10264786Y-17512357D01*
X10279071Y-17569500D01*
X10279071Y-17640929D01*
X10264786Y-17698072D01*
X10250500Y-17726643D01*
X10236214Y-17740929D01*
X10207643Y-17755214D01*
X10179071Y-17755214D01*
X10150500Y-17740929D01*
X10136214Y-17726643D01*
X10121928Y-17698072D01*
X10107643Y-17640929D01*
X10107643Y-17569500D01*
X10121928Y-17512357D01*
X10136214Y-17483786D01*
X10150500Y-17469500D01*
X10179071Y-17455214D01*
X10393357Y-17483786D02*
X10407643Y-17469500D01*
X10436214Y-17455214D01*
X10507643Y-17455214D01*
X10536214Y-17469500D01*
X10550500Y-17483786D01*
X10564786Y-17512357D01*
X10564786Y-17540929D01*
X10550500Y-17583786D01*
X10379071Y-17755214D01*
X10564786Y-17755214D01*
X10821928Y-17555214D02*
X10821928Y-17755214D01*
X10750500Y-17440929D02*
X10679071Y-17655214D01*
X10864786Y-17655214D01*
X10964786Y-17455214D02*
X10964786Y-17512357D01*
X11079071Y-17455214D02*
X11079071Y-17512357D01*
X11521928Y-17869500D02*
X11507643Y-17855214D01*
X11479071Y-17812357D01*
X11464785Y-17783786D01*
X11450500Y-17740929D01*
X11436214Y-17669500D01*
X11436214Y-17612357D01*
X11450500Y-17540929D01*
X11464785Y-17498072D01*
X11479071Y-17469500D01*
X11507643Y-17426643D01*
X11521928Y-17412357D01*
X11621928Y-17483786D02*
X11636214Y-17469500D01*
X11664785Y-17455214D01*
X11736214Y-17455214D01*
X11764785Y-17469500D01*
X11779071Y-17483786D01*
X11793357Y-17512357D01*
X11793357Y-17540929D01*
X11779071Y-17583786D01*
X11607643Y-17755214D01*
X11793357Y-17755214D01*
X12050500Y-17555214D02*
X12050500Y-17755214D01*
X11979071Y-17440929D02*
X11907643Y-17655214D01*
X12093357Y-17655214D01*
X12436214Y-17755214D02*
X12436214Y-17455214D01*
X12564785Y-17755214D02*
X12564785Y-17598072D01*
X12550500Y-17569500D01*
X12521928Y-17555214D01*
X12479071Y-17555214D01*
X12450500Y-17569500D01*
X12436214Y-17583786D01*
X12750500Y-17755214D02*
X12721928Y-17740929D01*
X12707643Y-17726643D01*
X12693357Y-17698072D01*
X12693357Y-17612357D01*
X12707643Y-17583786D01*
X12721928Y-17569500D01*
X12750500Y-17555214D01*
X12793357Y-17555214D01*
X12821928Y-17569500D01*
X12836214Y-17583786D01*
X12850500Y-17612357D01*
X12850500Y-17698072D01*
X12836214Y-17726643D01*
X12821928Y-17740929D01*
X12793357Y-17755214D01*
X12750500Y-17755214D01*
X13021928Y-17755214D02*
X12993357Y-17740929D01*
X12979071Y-17712357D01*
X12979071Y-17455214D01*
X13250500Y-17740929D02*
X13221928Y-17755214D01*
X13164786Y-17755214D01*
X13136214Y-17740929D01*
X13121928Y-17712357D01*
X13121928Y-17598072D01*
X13136214Y-17569500D01*
X13164786Y-17555214D01*
X13221928Y-17555214D01*
X13250500Y-17569500D01*
X13264786Y-17598072D01*
X13264786Y-17626643D01*
X13121928Y-17655214D01*
X13379071Y-17740929D02*
X13407643Y-17755214D01*
X13464786Y-17755214D01*
X13493357Y-17740929D01*
X13507643Y-17712357D01*
X13507643Y-17698072D01*
X13493357Y-17669500D01*
X13464786Y-17655214D01*
X13421928Y-17655214D01*
X13393357Y-17640929D01*
X13379071Y-17612357D01*
X13379071Y-17598072D01*
X13393357Y-17569500D01*
X13421928Y-17555214D01*
X13464786Y-17555214D01*
X13493357Y-17569500D01*
X13607643Y-17869500D02*
X13621928Y-17855214D01*
X13650500Y-17812357D01*
X13664786Y-17783786D01*
X13679071Y-17740929D01*
X13693357Y-17669500D01*
X13693357Y-17612357D01*
X13679071Y-17540929D01*
X13664786Y-17498072D01*
X13650500Y-17469500D01*
X13621928Y-17426643D01*
X13607643Y-17412357D01*
X6810500Y-17975500D02*
X6810500Y-18055500D01*
X6770500Y-18015500D02*
X6850500Y-18015500D01*
X7179071Y-17851214D02*
X7207643Y-17851214D01*
X7236214Y-17865500D01*
X7250500Y-17879786D01*
X7264786Y-17908357D01*
X7279071Y-17965500D01*
X7279071Y-18036929D01*
X7264786Y-18094072D01*
X7250500Y-18122643D01*
X7236214Y-18136929D01*
X7207643Y-18151214D01*
X7179071Y-18151214D01*
X7150500Y-18136929D01*
X7136214Y-18122643D01*
X7121928Y-18094072D01*
X7107643Y-18036929D01*
X7107643Y-17965500D01*
X7121928Y-17908357D01*
X7136214Y-17879786D01*
X7150500Y-17865500D01*
X7179071Y-17851214D01*
X7407643Y-18122643D02*
X7421928Y-18136929D01*
X7407643Y-18151214D01*
X7393357Y-18136929D01*
X7407643Y-18122643D01*
X7407643Y-18151214D01*
X7593357Y-17979786D02*
X7564786Y-17965500D01*
X7550500Y-17951214D01*
X7536214Y-17922643D01*
X7536214Y-17908357D01*
X7550500Y-17879786D01*
X7564786Y-17865500D01*
X7593357Y-17851214D01*
X7650500Y-17851214D01*
X7679071Y-17865500D01*
X7693357Y-17879786D01*
X7707643Y-17908357D01*
X7707643Y-17922643D01*
X7693357Y-17951214D01*
X7679071Y-17965500D01*
X7650500Y-17979786D01*
X7593357Y-17979786D01*
X7564786Y-17994072D01*
X7550500Y-18008357D01*
X7536214Y-18036929D01*
X7536214Y-18094072D01*
X7550500Y-18122643D01*
X7564786Y-18136929D01*
X7593357Y-18151214D01*
X7650500Y-18151214D01*
X7679071Y-18136929D01*
X7693357Y-18122643D01*
X7707643Y-18094072D01*
X7707643Y-18036929D01*
X7693357Y-18008357D01*
X7679071Y-17994072D01*
X7650500Y-17979786D01*
X7893357Y-17851214D02*
X7921928Y-17851214D01*
X7950500Y-17865500D01*
X7964786Y-17879786D01*
X7979071Y-17908357D01*
X7993357Y-17965500D01*
X7993357Y-18036929D01*
X7979071Y-18094072D01*
X7964786Y-18122643D01*
X7950500Y-18136929D01*
X7921928Y-18151214D01*
X7893357Y-18151214D01*
X7864786Y-18136929D01*
X7850500Y-18122643D01*
X7836214Y-18094072D01*
X7821928Y-18036929D01*
X7821928Y-17965500D01*
X7836214Y-17908357D01*
X7850500Y-17879786D01*
X7864786Y-17865500D01*
X7893357Y-17851214D01*
X8121928Y-18151214D02*
X8121928Y-17951214D01*
X8121928Y-17979786D02*
X8136214Y-17965500D01*
X8164786Y-17951214D01*
X8207643Y-17951214D01*
X8236214Y-17965500D01*
X8250500Y-17994072D01*
X8250500Y-18151214D01*
X8250500Y-17994072D02*
X8264786Y-17965500D01*
X8293357Y-17951214D01*
X8336214Y-17951214D01*
X8364786Y-17965500D01*
X8379071Y-17994072D01*
X8379071Y-18151214D01*
X8521929Y-18151214D02*
X8521929Y-17951214D01*
X8521929Y-17979786D02*
X8536214Y-17965500D01*
X8564786Y-17951214D01*
X8607643Y-17951214D01*
X8636214Y-17965500D01*
X8650500Y-17994072D01*
X8650500Y-18151214D01*
X8650500Y-17994072D02*
X8664786Y-17965500D01*
X8693357Y-17951214D01*
X8736214Y-17951214D01*
X8764786Y-17965500D01*
X8779071Y-17994072D01*
X8779071Y-18151214D01*
X9364786Y-17836929D02*
X9107643Y-18222643D01*
X9750500Y-17851214D02*
X9779071Y-17851214D01*
X9807643Y-17865500D01*
X9821928Y-17879786D01*
X9836214Y-17908357D01*
X9850500Y-17965500D01*
X9850500Y-18036929D01*
X9836214Y-18094072D01*
X9821928Y-18122643D01*
X9807643Y-18136929D01*
X9779071Y-18151214D01*
X9750500Y-18151214D01*
X9721928Y-18136929D01*
X9707643Y-18122643D01*
X9693357Y-18094072D01*
X9679071Y-18036929D01*
X9679071Y-17965500D01*
X9693357Y-17908357D01*
X9707643Y-17879786D01*
X9721928Y-17865500D01*
X9750500Y-17851214D01*
X9979071Y-18122643D02*
X9993357Y-18136929D01*
X9979071Y-18151214D01*
X9964786Y-18136929D01*
X9979071Y-18122643D01*
X9979071Y-18151214D01*
X10179071Y-17851214D02*
X10207643Y-17851214D01*
X10236214Y-17865500D01*
X10250500Y-17879786D01*
X10264786Y-17908357D01*
X10279071Y-17965500D01*
X10279071Y-18036929D01*
X10264786Y-18094072D01*
X10250500Y-18122643D01*
X10236214Y-18136929D01*
X10207643Y-18151214D01*
X10179071Y-18151214D01*
X10150500Y-18136929D01*
X10136214Y-18122643D01*
X10121928Y-18094072D01*
X10107643Y-18036929D01*
X10107643Y-17965500D01*
X10121928Y-17908357D01*
X10136214Y-17879786D01*
X10150500Y-17865500D01*
X10179071Y-17851214D01*
X10379071Y-17851214D02*
X10564786Y-17851214D01*
X10464786Y-17965500D01*
X10507643Y-17965500D01*
X10536214Y-17979786D01*
X10550500Y-17994072D01*
X10564786Y-18022643D01*
X10564786Y-18094072D01*
X10550500Y-18122643D01*
X10536214Y-18136929D01*
X10507643Y-18151214D01*
X10421928Y-18151214D01*
X10393357Y-18136929D01*
X10379071Y-18122643D01*
X10850500Y-18151214D02*
X10679071Y-18151214D01*
X10764786Y-18151214D02*
X10764786Y-17851214D01*
X10736214Y-17894072D01*
X10707643Y-17922643D01*
X10679071Y-17936929D01*
X10964786Y-17851214D02*
X10964786Y-17908357D01*
X11079071Y-17851214D02*
X11079071Y-17908357D01*
X11521928Y-18265500D02*
X11507643Y-18251214D01*
X11479071Y-18208357D01*
X11464785Y-18179786D01*
X11450500Y-18136929D01*
X11436214Y-18065500D01*
X11436214Y-18008357D01*
X11450500Y-17936929D01*
X11464785Y-17894072D01*
X11479071Y-17865500D01*
X11507643Y-17822643D01*
X11521928Y-17808357D01*
X11607643Y-17851214D02*
X11793357Y-17851214D01*
X11693357Y-17965500D01*
X11736214Y-17965500D01*
X11764785Y-17979786D01*
X11779071Y-17994072D01*
X11793357Y-18022643D01*
X11793357Y-18094072D01*
X11779071Y-18122643D01*
X11764785Y-18136929D01*
X11736214Y-18151214D01*
X11650500Y-18151214D01*
X11621928Y-18136929D01*
X11607643Y-18122643D01*
X11964785Y-17979786D02*
X11936214Y-17965500D01*
X11921928Y-17951214D01*
X11907643Y-17922643D01*
X11907643Y-17908357D01*
X11921928Y-17879786D01*
X11936214Y-17865500D01*
X11964785Y-17851214D01*
X12021928Y-17851214D01*
X12050500Y-17865500D01*
X12064785Y-17879786D01*
X12079071Y-17908357D01*
X12079071Y-17922643D01*
X12064785Y-17951214D01*
X12050500Y-17965500D01*
X12021928Y-17979786D01*
X11964785Y-17979786D01*
X11936214Y-17994072D01*
X11921928Y-18008357D01*
X11907643Y-18036929D01*
X11907643Y-18094072D01*
X11921928Y-18122643D01*
X11936214Y-18136929D01*
X11964785Y-18151214D01*
X12021928Y-18151214D01*
X12050500Y-18136929D01*
X12064785Y-18122643D01*
X12079071Y-18094072D01*
X12079071Y-18036929D01*
X12064785Y-18008357D01*
X12050500Y-17994072D01*
X12021928Y-17979786D01*
X12436214Y-18151214D02*
X12436214Y-17851214D01*
X12564785Y-18151214D02*
X12564785Y-17994072D01*
X12550500Y-17965500D01*
X12521928Y-17951214D01*
X12479071Y-17951214D01*
X12450500Y-17965500D01*
X12436214Y-17979786D01*
X12750500Y-18151214D02*
X12721928Y-18136929D01*
X12707643Y-18122643D01*
X12693357Y-18094072D01*
X12693357Y-18008357D01*
X12707643Y-17979786D01*
X12721928Y-17965500D01*
X12750500Y-17951214D01*
X12793357Y-17951214D01*
X12821928Y-17965500D01*
X12836214Y-17979786D01*
X12850500Y-18008357D01*
X12850500Y-18094072D01*
X12836214Y-18122643D01*
X12821928Y-18136929D01*
X12793357Y-18151214D01*
X12750500Y-18151214D01*
X13021928Y-18151214D02*
X12993357Y-18136929D01*
X12979071Y-18108357D01*
X12979071Y-17851214D01*
X13250500Y-18136929D02*
X13221928Y-18151214D01*
X13164786Y-18151214D01*
X13136214Y-18136929D01*
X13121928Y-18108357D01*
X13121928Y-17994072D01*
X13136214Y-17965500D01*
X13164786Y-17951214D01*
X13221928Y-17951214D01*
X13250500Y-17965500D01*
X13264786Y-17994072D01*
X13264786Y-18022643D01*
X13121928Y-18051214D01*
X13379071Y-18136929D02*
X13407643Y-18151214D01*
X13464786Y-18151214D01*
X13493357Y-18136929D01*
X13507643Y-18108357D01*
X13507643Y-18094072D01*
X13493357Y-18065500D01*
X13464786Y-18051214D01*
X13421928Y-18051214D01*
X13393357Y-18036929D01*
X13379071Y-18008357D01*
X13379071Y-17994072D01*
X13393357Y-17965500D01*
X13421928Y-17951214D01*
X13464786Y-17951214D01*
X13493357Y-17965500D01*
X13607643Y-18265500D02*
X13621928Y-18251214D01*
X13650500Y-18208357D01*
X13664786Y-18179786D01*
X13679071Y-18136929D01*
X13693357Y-18065500D01*
X13693357Y-18008357D01*
X13679071Y-17936929D01*
X13664786Y-17894072D01*
X13650500Y-17865500D01*
X13621928Y-17822643D01*
X13607643Y-17808357D01*
X6838597Y-18440237D02*
X6838597Y-18382763D01*
X6781123Y-18382763D01*
X6781123Y-18440237D01*
X6838597Y-18440237D01*
X7179071Y-18247214D02*
X7207643Y-18247214D01*
X7236214Y-18261500D01*
X7250500Y-18275786D01*
X7264786Y-18304357D01*
X7279071Y-18361500D01*
X7279071Y-18432929D01*
X7264786Y-18490072D01*
X7250500Y-18518643D01*
X7236214Y-18532929D01*
X7207643Y-18547214D01*
X7179071Y-18547214D01*
X7150500Y-18532929D01*
X7136214Y-18518643D01*
X7121928Y-18490072D01*
X7107643Y-18432929D01*
X7107643Y-18361500D01*
X7121928Y-18304357D01*
X7136214Y-18275786D01*
X7150500Y-18261500D01*
X7179071Y-18247214D01*
X7407643Y-18518643D02*
X7421928Y-18532929D01*
X7407643Y-18547214D01*
X7393357Y-18532929D01*
X7407643Y-18518643D01*
X7407643Y-18547214D01*
X7593357Y-18375786D02*
X7564786Y-18361500D01*
X7550500Y-18347214D01*
X7536214Y-18318643D01*
X7536214Y-18304357D01*
X7550500Y-18275786D01*
X7564786Y-18261500D01*
X7593357Y-18247214D01*
X7650500Y-18247214D01*
X7679071Y-18261500D01*
X7693357Y-18275786D01*
X7707643Y-18304357D01*
X7707643Y-18318643D01*
X7693357Y-18347214D01*
X7679071Y-18361500D01*
X7650500Y-18375786D01*
X7593357Y-18375786D01*
X7564786Y-18390072D01*
X7550500Y-18404357D01*
X7536214Y-18432929D01*
X7536214Y-18490072D01*
X7550500Y-18518643D01*
X7564786Y-18532929D01*
X7593357Y-18547214D01*
X7650500Y-18547214D01*
X7679071Y-18532929D01*
X7693357Y-18518643D01*
X7707643Y-18490072D01*
X7707643Y-18432929D01*
X7693357Y-18404357D01*
X7679071Y-18390072D01*
X7650500Y-18375786D01*
X7993357Y-18547214D02*
X7821928Y-18547214D01*
X7907643Y-18547214D02*
X7907643Y-18247214D01*
X7879071Y-18290072D01*
X7850500Y-18318643D01*
X7821928Y-18332929D01*
X8121928Y-18547214D02*
X8121928Y-18347214D01*
X8121928Y-18375786D02*
X8136214Y-18361500D01*
X8164786Y-18347214D01*
X8207643Y-18347214D01*
X8236214Y-18361500D01*
X8250500Y-18390072D01*
X8250500Y-18547214D01*
X8250500Y-18390072D02*
X8264786Y-18361500D01*
X8293357Y-18347214D01*
X8336214Y-18347214D01*
X8364786Y-18361500D01*
X8379071Y-18390072D01*
X8379071Y-18547214D01*
X8521929Y-18547214D02*
X8521929Y-18347214D01*
X8521929Y-18375786D02*
X8536214Y-18361500D01*
X8564786Y-18347214D01*
X8607643Y-18347214D01*
X8636214Y-18361500D01*
X8650500Y-18390072D01*
X8650500Y-18547214D01*
X8650500Y-18390072D02*
X8664786Y-18361500D01*
X8693357Y-18347214D01*
X8736214Y-18347214D01*
X8764786Y-18361500D01*
X8779071Y-18390072D01*
X8779071Y-18547214D01*
X9364786Y-18232929D02*
X9107643Y-18618643D01*
X9750500Y-18247214D02*
X9779071Y-18247214D01*
X9807643Y-18261500D01*
X9821928Y-18275786D01*
X9836214Y-18304357D01*
X9850500Y-18361500D01*
X9850500Y-18432929D01*
X9836214Y-18490072D01*
X9821928Y-18518643D01*
X9807643Y-18532929D01*
X9779071Y-18547214D01*
X9750500Y-18547214D01*
X9721928Y-18532929D01*
X9707643Y-18518643D01*
X9693357Y-18490072D01*
X9679071Y-18432929D01*
X9679071Y-18361500D01*
X9693357Y-18304357D01*
X9707643Y-18275786D01*
X9721928Y-18261500D01*
X9750500Y-18247214D01*
X9979071Y-18518643D02*
X9993357Y-18532929D01*
X9979071Y-18547214D01*
X9964786Y-18532929D01*
X9979071Y-18518643D01*
X9979071Y-18547214D01*
X10179071Y-18247214D02*
X10207643Y-18247214D01*
X10236214Y-18261500D01*
X10250500Y-18275786D01*
X10264786Y-18304357D01*
X10279071Y-18361500D01*
X10279071Y-18432929D01*
X10264786Y-18490072D01*
X10250500Y-18518643D01*
X10236214Y-18532929D01*
X10207643Y-18547214D01*
X10179071Y-18547214D01*
X10150500Y-18532929D01*
X10136214Y-18518643D01*
X10121928Y-18490072D01*
X10107643Y-18432929D01*
X10107643Y-18361500D01*
X10121928Y-18304357D01*
X10136214Y-18275786D01*
X10150500Y-18261500D01*
X10179071Y-18247214D01*
X10379071Y-18247214D02*
X10564786Y-18247214D01*
X10464786Y-18361500D01*
X10507643Y-18361500D01*
X10536214Y-18375786D01*
X10550500Y-18390072D01*
X10564786Y-18418643D01*
X10564786Y-18490072D01*
X10550500Y-18518643D01*
X10536214Y-18532929D01*
X10507643Y-18547214D01*
X10421928Y-18547214D01*
X10393357Y-18532929D01*
X10379071Y-18518643D01*
X10679071Y-18275786D02*
X10693357Y-18261500D01*
X10721928Y-18247214D01*
X10793357Y-18247214D01*
X10821928Y-18261500D01*
X10836214Y-18275786D01*
X10850500Y-18304357D01*
X10850500Y-18332929D01*
X10836214Y-18375786D01*
X10664786Y-18547214D01*
X10850500Y-18547214D01*
X10964786Y-18247214D02*
X10964786Y-18304357D01*
X11079071Y-18247214D02*
X11079071Y-18304357D01*
X11521928Y-18661500D02*
X11507643Y-18647214D01*
X11479071Y-18604357D01*
X11464785Y-18575786D01*
X11450500Y-18532929D01*
X11436214Y-18461500D01*
X11436214Y-18404357D01*
X11450500Y-18332929D01*
X11464785Y-18290072D01*
X11479071Y-18261500D01*
X11507643Y-18218643D01*
X11521928Y-18204357D01*
X11607643Y-18247214D02*
X11793357Y-18247214D01*
X11693357Y-18361500D01*
X11736214Y-18361500D01*
X11764785Y-18375786D01*
X11779071Y-18390072D01*
X11793357Y-18418643D01*
X11793357Y-18490072D01*
X11779071Y-18518643D01*
X11764785Y-18532929D01*
X11736214Y-18547214D01*
X11650500Y-18547214D01*
X11621928Y-18532929D01*
X11607643Y-18518643D01*
X12150500Y-18547214D02*
X12150500Y-18247214D01*
X12279071Y-18547214D02*
X12279071Y-18390072D01*
X12264785Y-18361500D01*
X12236214Y-18347214D01*
X12193357Y-18347214D01*
X12164785Y-18361500D01*
X12150500Y-18375786D01*
X12464785Y-18547214D02*
X12436214Y-18532929D01*
X12421928Y-18518643D01*
X12407643Y-18490072D01*
X12407643Y-18404357D01*
X12421928Y-18375786D01*
X12436214Y-18361500D01*
X12464785Y-18347214D01*
X12507643Y-18347214D01*
X12536214Y-18361500D01*
X12550500Y-18375786D01*
X12564785Y-18404357D01*
X12564785Y-18490072D01*
X12550500Y-18518643D01*
X12536214Y-18532929D01*
X12507643Y-18547214D01*
X12464785Y-18547214D01*
X12736214Y-18547214D02*
X12707643Y-18532929D01*
X12693357Y-18504357D01*
X12693357Y-18247214D01*
X12964786Y-18532929D02*
X12936214Y-18547214D01*
X12879071Y-18547214D01*
X12850500Y-18532929D01*
X12836214Y-18504357D01*
X12836214Y-18390072D01*
X12850500Y-18361500D01*
X12879071Y-18347214D01*
X12936214Y-18347214D01*
X12964786Y-18361500D01*
X12979071Y-18390072D01*
X12979071Y-18418643D01*
X12836214Y-18447214D01*
X13093357Y-18532929D02*
X13121928Y-18547214D01*
X13179071Y-18547214D01*
X13207643Y-18532929D01*
X13221928Y-18504357D01*
X13221928Y-18490072D01*
X13207643Y-18461500D01*
X13179071Y-18447214D01*
X13136214Y-18447214D01*
X13107643Y-18432929D01*
X13093357Y-18404357D01*
X13093357Y-18390072D01*
X13107643Y-18361500D01*
X13136214Y-18347214D01*
X13179071Y-18347214D01*
X13207643Y-18361500D01*
X13321928Y-18661500D02*
X13336214Y-18647214D01*
X13364786Y-18604357D01*
X13379071Y-18575786D01*
X13393357Y-18532929D01*
X13407643Y-18461500D01*
X13407643Y-18404357D01*
X13393357Y-18332929D01*
X13379071Y-18290072D01*
X13364786Y-18261500D01*
X13336214Y-18218643D01*
X13321928Y-18204357D01*
X6800462Y-18857538D02*
X6850500Y-18807500D01*
X6800462Y-18757462D01*
X6750424Y-18807500D01*
X6800462Y-18857538D01*
X7279071Y-18943214D02*
X7107643Y-18943214D01*
X7193357Y-18943214D02*
X7193357Y-18643214D01*
X7164786Y-18686072D01*
X7136214Y-18714643D01*
X7107643Y-18728929D01*
X7407643Y-18914643D02*
X7421928Y-18928929D01*
X7407643Y-18943214D01*
X7393357Y-18928929D01*
X7407643Y-18914643D01*
X7407643Y-18943214D01*
X7607643Y-18643214D02*
X7636214Y-18643214D01*
X7664786Y-18657500D01*
X7679071Y-18671786D01*
X7693357Y-18700357D01*
X7707643Y-18757500D01*
X7707643Y-18828929D01*
X7693357Y-18886072D01*
X7679071Y-18914643D01*
X7664786Y-18928929D01*
X7636214Y-18943214D01*
X7607643Y-18943214D01*
X7579071Y-18928929D01*
X7564786Y-18914643D01*
X7550500Y-18886072D01*
X7536214Y-18828929D01*
X7536214Y-18757500D01*
X7550500Y-18700357D01*
X7564786Y-18671786D01*
X7579071Y-18657500D01*
X7607643Y-18643214D01*
X7893357Y-18643214D02*
X7921928Y-18643214D01*
X7950500Y-18657500D01*
X7964786Y-18671786D01*
X7979071Y-18700357D01*
X7993357Y-18757500D01*
X7993357Y-18828929D01*
X7979071Y-18886072D01*
X7964786Y-18914643D01*
X7950500Y-18928929D01*
X7921928Y-18943214D01*
X7893357Y-18943214D01*
X7864786Y-18928929D01*
X7850500Y-18914643D01*
X7836214Y-18886072D01*
X7821928Y-18828929D01*
X7821928Y-18757500D01*
X7836214Y-18700357D01*
X7850500Y-18671786D01*
X7864786Y-18657500D01*
X7893357Y-18643214D01*
X8121928Y-18943214D02*
X8121928Y-18743214D01*
X8121928Y-18771786D02*
X8136214Y-18757500D01*
X8164786Y-18743214D01*
X8207643Y-18743214D01*
X8236214Y-18757500D01*
X8250500Y-18786072D01*
X8250500Y-18943214D01*
X8250500Y-18786072D02*
X8264786Y-18757500D01*
X8293357Y-18743214D01*
X8336214Y-18743214D01*
X8364786Y-18757500D01*
X8379071Y-18786072D01*
X8379071Y-18943214D01*
X8521929Y-18943214D02*
X8521929Y-18743214D01*
X8521929Y-18771786D02*
X8536214Y-18757500D01*
X8564786Y-18743214D01*
X8607643Y-18743214D01*
X8636214Y-18757500D01*
X8650500Y-18786072D01*
X8650500Y-18943214D01*
X8650500Y-18786072D02*
X8664786Y-18757500D01*
X8693357Y-18743214D01*
X8736214Y-18743214D01*
X8764786Y-18757500D01*
X8779071Y-18786072D01*
X8779071Y-18943214D01*
X9364786Y-18628929D02*
X9107643Y-19014643D01*
X9750500Y-18643214D02*
X9779071Y-18643214D01*
X9807643Y-18657500D01*
X9821928Y-18671786D01*
X9836214Y-18700357D01*
X9850500Y-18757500D01*
X9850500Y-18828929D01*
X9836214Y-18886072D01*
X9821928Y-18914643D01*
X9807643Y-18928929D01*
X9779071Y-18943214D01*
X9750500Y-18943214D01*
X9721928Y-18928929D01*
X9707643Y-18914643D01*
X9693357Y-18886072D01*
X9679071Y-18828929D01*
X9679071Y-18757500D01*
X9693357Y-18700357D01*
X9707643Y-18671786D01*
X9721928Y-18657500D01*
X9750500Y-18643214D01*
X9979071Y-18914643D02*
X9993357Y-18928929D01*
X9979071Y-18943214D01*
X9964786Y-18928929D01*
X9979071Y-18914643D01*
X9979071Y-18943214D01*
X10179071Y-18643214D02*
X10207643Y-18643214D01*
X10236214Y-18657500D01*
X10250500Y-18671786D01*
X10264786Y-18700357D01*
X10279071Y-18757500D01*
X10279071Y-18828929D01*
X10264786Y-18886072D01*
X10250500Y-18914643D01*
X10236214Y-18928929D01*
X10207643Y-18943214D01*
X10179071Y-18943214D01*
X10150500Y-18928929D01*
X10136214Y-18914643D01*
X10121928Y-18886072D01*
X10107643Y-18828929D01*
X10107643Y-18757500D01*
X10121928Y-18700357D01*
X10136214Y-18671786D01*
X10150500Y-18657500D01*
X10179071Y-18643214D01*
X10379071Y-18643214D02*
X10564786Y-18643214D01*
X10464786Y-18757500D01*
X10507643Y-18757500D01*
X10536214Y-18771786D01*
X10550500Y-18786072D01*
X10564786Y-18814643D01*
X10564786Y-18886072D01*
X10550500Y-18914643D01*
X10536214Y-18928929D01*
X10507643Y-18943214D01*
X10421928Y-18943214D01*
X10393357Y-18928929D01*
X10379071Y-18914643D01*
X10707643Y-18943214D02*
X10764786Y-18943214D01*
X10793357Y-18928929D01*
X10807643Y-18914643D01*
X10836214Y-18871786D01*
X10850500Y-18814643D01*
X10850500Y-18700357D01*
X10836214Y-18671786D01*
X10821928Y-18657500D01*
X10793357Y-18643214D01*
X10736214Y-18643214D01*
X10707643Y-18657500D01*
X10693357Y-18671786D01*
X10679071Y-18700357D01*
X10679071Y-18771786D01*
X10693357Y-18800357D01*
X10707643Y-18814643D01*
X10736214Y-18828929D01*
X10793357Y-18828929D01*
X10821928Y-18814643D01*
X10836214Y-18800357D01*
X10850500Y-18771786D01*
X10964786Y-18643214D02*
X10964786Y-18700357D01*
X11079071Y-18643214D02*
X11079071Y-18700357D01*
X11521928Y-19057500D02*
X11507643Y-19043214D01*
X11479071Y-19000357D01*
X11464785Y-18971786D01*
X11450500Y-18928929D01*
X11436214Y-18857500D01*
X11436214Y-18800357D01*
X11450500Y-18728929D01*
X11464785Y-18686072D01*
X11479071Y-18657500D01*
X11507643Y-18614643D01*
X11521928Y-18600357D01*
X11764785Y-18643214D02*
X11707643Y-18643214D01*
X11679071Y-18657500D01*
X11664785Y-18671786D01*
X11636214Y-18714643D01*
X11621928Y-18771786D01*
X11621928Y-18886072D01*
X11636214Y-18914643D01*
X11650500Y-18928929D01*
X11679071Y-18943214D01*
X11736214Y-18943214D01*
X11764785Y-18928929D01*
X11779071Y-18914643D01*
X11793357Y-18886072D01*
X11793357Y-18814643D01*
X11779071Y-18786072D01*
X11764785Y-18771786D01*
X11736214Y-18757500D01*
X11679071Y-18757500D01*
X11650500Y-18771786D01*
X11636214Y-18786072D01*
X11621928Y-18814643D01*
X11893357Y-18643214D02*
X12093357Y-18643214D01*
X11964785Y-18943214D01*
X12436214Y-18943214D02*
X12436214Y-18643214D01*
X12564785Y-18943214D02*
X12564785Y-18786072D01*
X12550500Y-18757500D01*
X12521928Y-18743214D01*
X12479071Y-18743214D01*
X12450500Y-18757500D01*
X12436214Y-18771786D01*
X12750500Y-18943214D02*
X12721928Y-18928929D01*
X12707643Y-18914643D01*
X12693357Y-18886072D01*
X12693357Y-18800357D01*
X12707643Y-18771786D01*
X12721928Y-18757500D01*
X12750500Y-18743214D01*
X12793357Y-18743214D01*
X12821928Y-18757500D01*
X12836214Y-18771786D01*
X12850500Y-18800357D01*
X12850500Y-18886072D01*
X12836214Y-18914643D01*
X12821928Y-18928929D01*
X12793357Y-18943214D01*
X12750500Y-18943214D01*
X13021928Y-18943214D02*
X12993357Y-18928929D01*
X12979071Y-18900357D01*
X12979071Y-18643214D01*
X13250500Y-18928929D02*
X13221928Y-18943214D01*
X13164786Y-18943214D01*
X13136214Y-18928929D01*
X13121928Y-18900357D01*
X13121928Y-18786072D01*
X13136214Y-18757500D01*
X13164786Y-18743214D01*
X13221928Y-18743214D01*
X13250500Y-18757500D01*
X13264786Y-18786072D01*
X13264786Y-18814643D01*
X13121928Y-18843214D01*
X13379071Y-18928929D02*
X13407643Y-18943214D01*
X13464786Y-18943214D01*
X13493357Y-18928929D01*
X13507643Y-18900357D01*
X13507643Y-18886072D01*
X13493357Y-18857500D01*
X13464786Y-18843214D01*
X13421928Y-18843214D01*
X13393357Y-18828929D01*
X13379071Y-18800357D01*
X13379071Y-18786072D01*
X13393357Y-18757500D01*
X13421928Y-18743214D01*
X13464786Y-18743214D01*
X13493357Y-18757500D01*
X13607643Y-19057500D02*
X13621928Y-19043214D01*
X13650500Y-19000357D01*
X13664786Y-18971786D01*
X13679071Y-18928929D01*
X13693357Y-18857500D01*
X13693357Y-18800357D01*
X13679071Y-18728929D01*
X13664786Y-18686072D01*
X13650500Y-18657500D01*
X13621928Y-18614643D01*
X13607643Y-18600357D01*
X6748900Y-19152700D02*
X6850500Y-19254300D01*
X6850500Y-19152700D02*
X6748900Y-19254300D01*
X6850500Y-19203500D02*
G75*
G03X6850500Y-19203500I-50800J0D01*
G01*
X7279071Y-19339214D02*
X7107643Y-19339214D01*
X7193357Y-19339214D02*
X7193357Y-19039214D01*
X7164786Y-19082072D01*
X7136214Y-19110643D01*
X7107643Y-19124929D01*
X7407643Y-19310643D02*
X7421928Y-19324929D01*
X7407643Y-19339214D01*
X7393357Y-19324929D01*
X7407643Y-19310643D01*
X7407643Y-19339214D01*
X7607643Y-19039214D02*
X7636214Y-19039214D01*
X7664786Y-19053500D01*
X7679071Y-19067786D01*
X7693357Y-19096357D01*
X7707643Y-19153500D01*
X7707643Y-19224929D01*
X7693357Y-19282072D01*
X7679071Y-19310643D01*
X7664786Y-19324929D01*
X7636214Y-19339214D01*
X7607643Y-19339214D01*
X7579071Y-19324929D01*
X7564786Y-19310643D01*
X7550500Y-19282072D01*
X7536214Y-19224929D01*
X7536214Y-19153500D01*
X7550500Y-19096357D01*
X7564786Y-19067786D01*
X7579071Y-19053500D01*
X7607643Y-19039214D01*
X7821928Y-19067786D02*
X7836214Y-19053500D01*
X7864786Y-19039214D01*
X7936214Y-19039214D01*
X7964786Y-19053500D01*
X7979071Y-19067786D01*
X7993357Y-19096357D01*
X7993357Y-19124929D01*
X7979071Y-19167786D01*
X7807643Y-19339214D01*
X7993357Y-19339214D01*
X8121928Y-19339214D02*
X8121928Y-19139214D01*
X8121928Y-19167786D02*
X8136214Y-19153500D01*
X8164786Y-19139214D01*
X8207643Y-19139214D01*
X8236214Y-19153500D01*
X8250500Y-19182072D01*
X8250500Y-19339214D01*
X8250500Y-19182072D02*
X8264786Y-19153500D01*
X8293357Y-19139214D01*
X8336214Y-19139214D01*
X8364786Y-19153500D01*
X8379071Y-19182072D01*
X8379071Y-19339214D01*
X8521929Y-19339214D02*
X8521929Y-19139214D01*
X8521929Y-19167786D02*
X8536214Y-19153500D01*
X8564786Y-19139214D01*
X8607643Y-19139214D01*
X8636214Y-19153500D01*
X8650500Y-19182072D01*
X8650500Y-19339214D01*
X8650500Y-19182072D02*
X8664786Y-19153500D01*
X8693357Y-19139214D01*
X8736214Y-19139214D01*
X8764786Y-19153500D01*
X8779071Y-19182072D01*
X8779071Y-19339214D01*
X9364786Y-19024929D02*
X9107643Y-19410643D01*
X9750500Y-19039214D02*
X9779071Y-19039214D01*
X9807643Y-19053500D01*
X9821928Y-19067786D01*
X9836214Y-19096357D01*
X9850500Y-19153500D01*
X9850500Y-19224929D01*
X9836214Y-19282072D01*
X9821928Y-19310643D01*
X9807643Y-19324929D01*
X9779071Y-19339214D01*
X9750500Y-19339214D01*
X9721928Y-19324929D01*
X9707643Y-19310643D01*
X9693357Y-19282072D01*
X9679071Y-19224929D01*
X9679071Y-19153500D01*
X9693357Y-19096357D01*
X9707643Y-19067786D01*
X9721928Y-19053500D01*
X9750500Y-19039214D01*
X9979071Y-19310643D02*
X9993357Y-19324929D01*
X9979071Y-19339214D01*
X9964786Y-19324929D01*
X9979071Y-19310643D01*
X9979071Y-19339214D01*
X10179071Y-19039214D02*
X10207643Y-19039214D01*
X10236214Y-19053500D01*
X10250500Y-19067786D01*
X10264786Y-19096357D01*
X10279071Y-19153500D01*
X10279071Y-19224929D01*
X10264786Y-19282072D01*
X10250500Y-19310643D01*
X10236214Y-19324929D01*
X10207643Y-19339214D01*
X10179071Y-19339214D01*
X10150500Y-19324929D01*
X10136214Y-19310643D01*
X10121928Y-19282072D01*
X10107643Y-19224929D01*
X10107643Y-19153500D01*
X10121928Y-19096357D01*
X10136214Y-19067786D01*
X10150500Y-19053500D01*
X10179071Y-19039214D01*
X10536214Y-19139214D02*
X10536214Y-19339214D01*
X10464786Y-19024929D02*
X10393357Y-19239214D01*
X10579071Y-19239214D01*
X10750500Y-19039214D02*
X10779071Y-19039214D01*
X10807643Y-19053500D01*
X10821928Y-19067786D01*
X10836214Y-19096357D01*
X10850500Y-19153500D01*
X10850500Y-19224929D01*
X10836214Y-19282072D01*
X10821928Y-19310643D01*
X10807643Y-19324929D01*
X10779071Y-19339214D01*
X10750500Y-19339214D01*
X10721928Y-19324929D01*
X10707643Y-19310643D01*
X10693357Y-19282072D01*
X10679071Y-19224929D01*
X10679071Y-19153500D01*
X10693357Y-19096357D01*
X10707643Y-19067786D01*
X10721928Y-19053500D01*
X10750500Y-19039214D01*
X10964786Y-19039214D02*
X10964786Y-19096357D01*
X11079071Y-19039214D02*
X11079071Y-19096357D01*
X11521928Y-19453500D02*
X11507643Y-19439214D01*
X11479071Y-19396357D01*
X11464785Y-19367786D01*
X11450500Y-19324929D01*
X11436214Y-19253500D01*
X11436214Y-19196357D01*
X11450500Y-19124929D01*
X11464785Y-19082072D01*
X11479071Y-19053500D01*
X11507643Y-19010643D01*
X11521928Y-18996357D01*
X11793357Y-19339214D02*
X11621928Y-19339214D01*
X11707643Y-19339214D02*
X11707643Y-19039214D01*
X11679071Y-19082072D01*
X11650500Y-19110643D01*
X11621928Y-19124929D01*
X11893357Y-19039214D02*
X12079071Y-19039214D01*
X11979071Y-19153500D01*
X12021928Y-19153500D01*
X12050500Y-19167786D01*
X12064785Y-19182072D01*
X12079071Y-19210643D01*
X12079071Y-19282072D01*
X12064785Y-19310643D01*
X12050500Y-19324929D01*
X12021928Y-19339214D01*
X11936214Y-19339214D01*
X11907643Y-19324929D01*
X11893357Y-19310643D01*
X12436214Y-19339214D02*
X12436214Y-19039214D01*
X12564785Y-19339214D02*
X12564785Y-19182072D01*
X12550500Y-19153500D01*
X12521928Y-19139214D01*
X12479071Y-19139214D01*
X12450500Y-19153500D01*
X12436214Y-19167786D01*
X12750500Y-19339214D02*
X12721928Y-19324929D01*
X12707643Y-19310643D01*
X12693357Y-19282072D01*
X12693357Y-19196357D01*
X12707643Y-19167786D01*
X12721928Y-19153500D01*
X12750500Y-19139214D01*
X12793357Y-19139214D01*
X12821928Y-19153500D01*
X12836214Y-19167786D01*
X12850500Y-19196357D01*
X12850500Y-19282072D01*
X12836214Y-19310643D01*
X12821928Y-19324929D01*
X12793357Y-19339214D01*
X12750500Y-19339214D01*
X13021928Y-19339214D02*
X12993357Y-19324929D01*
X12979071Y-19296357D01*
X12979071Y-19039214D01*
X13250500Y-19324929D02*
X13221928Y-19339214D01*
X13164786Y-19339214D01*
X13136214Y-19324929D01*
X13121928Y-19296357D01*
X13121928Y-19182072D01*
X13136214Y-19153500D01*
X13164786Y-19139214D01*
X13221928Y-19139214D01*
X13250500Y-19153500D01*
X13264786Y-19182072D01*
X13264786Y-19210643D01*
X13121928Y-19239214D01*
X13379071Y-19324929D02*
X13407643Y-19339214D01*
X13464786Y-19339214D01*
X13493357Y-19324929D01*
X13507643Y-19296357D01*
X13507643Y-19282072D01*
X13493357Y-19253500D01*
X13464786Y-19239214D01*
X13421928Y-19239214D01*
X13393357Y-19224929D01*
X13379071Y-19196357D01*
X13379071Y-19182072D01*
X13393357Y-19153500D01*
X13421928Y-19139214D01*
X13464786Y-19139214D01*
X13493357Y-19153500D01*
X13607643Y-19453500D02*
X13621928Y-19439214D01*
X13650500Y-19396357D01*
X13664786Y-19367786D01*
X13679071Y-19324929D01*
X13693357Y-19253500D01*
X13693357Y-19196357D01*
X13679071Y-19124929D01*
X13664786Y-19082072D01*
X13650500Y-19053500D01*
X13621928Y-19010643D01*
X13607643Y-18996357D01*
X6723500Y-19536000D02*
X6850500Y-19663000D01*
X6850500Y-19536000D02*
X6723500Y-19663000D01*
X6787000Y-19536000D02*
X6787000Y-19663000D01*
X6723500Y-19599500D02*
X6850500Y-19599500D01*
X7279071Y-19735214D02*
X7107643Y-19735214D01*
X7193357Y-19735214D02*
X7193357Y-19435214D01*
X7164786Y-19478072D01*
X7136214Y-19506643D01*
X7107643Y-19520929D01*
X7407643Y-19706643D02*
X7421928Y-19720929D01*
X7407643Y-19735214D01*
X7393357Y-19720929D01*
X7407643Y-19706643D01*
X7407643Y-19735214D01*
X7536214Y-19463786D02*
X7550500Y-19449500D01*
X7579071Y-19435214D01*
X7650500Y-19435214D01*
X7679071Y-19449500D01*
X7693357Y-19463786D01*
X7707643Y-19492357D01*
X7707643Y-19520929D01*
X7693357Y-19563786D01*
X7521928Y-19735214D01*
X7707643Y-19735214D01*
X7807643Y-19435214D02*
X8007643Y-19435214D01*
X7879071Y-19735214D01*
X8121928Y-19735214D02*
X8121928Y-19535214D01*
X8121928Y-19563786D02*
X8136214Y-19549500D01*
X8164786Y-19535214D01*
X8207643Y-19535214D01*
X8236214Y-19549500D01*
X8250500Y-19578072D01*
X8250500Y-19735214D01*
X8250500Y-19578072D02*
X8264786Y-19549500D01*
X8293357Y-19535214D01*
X8336214Y-19535214D01*
X8364786Y-19549500D01*
X8379071Y-19578072D01*
X8379071Y-19735214D01*
X8521929Y-19735214D02*
X8521929Y-19535214D01*
X8521929Y-19563786D02*
X8536214Y-19549500D01*
X8564786Y-19535214D01*
X8607643Y-19535214D01*
X8636214Y-19549500D01*
X8650500Y-19578072D01*
X8650500Y-19735214D01*
X8650500Y-19578072D02*
X8664786Y-19549500D01*
X8693357Y-19535214D01*
X8736214Y-19535214D01*
X8764786Y-19549500D01*
X8779071Y-19578072D01*
X8779071Y-19735214D01*
X9364786Y-19420929D02*
X9107643Y-19806643D01*
X9750500Y-19435214D02*
X9779071Y-19435214D01*
X9807643Y-19449500D01*
X9821928Y-19463786D01*
X9836214Y-19492357D01*
X9850500Y-19549500D01*
X9850500Y-19620929D01*
X9836214Y-19678072D01*
X9821928Y-19706643D01*
X9807643Y-19720929D01*
X9779071Y-19735214D01*
X9750500Y-19735214D01*
X9721928Y-19720929D01*
X9707643Y-19706643D01*
X9693357Y-19678072D01*
X9679071Y-19620929D01*
X9679071Y-19549500D01*
X9693357Y-19492357D01*
X9707643Y-19463786D01*
X9721928Y-19449500D01*
X9750500Y-19435214D01*
X9979071Y-19706643D02*
X9993357Y-19720929D01*
X9979071Y-19735214D01*
X9964786Y-19720929D01*
X9979071Y-19706643D01*
X9979071Y-19735214D01*
X10179071Y-19435214D02*
X10207643Y-19435214D01*
X10236214Y-19449500D01*
X10250500Y-19463786D01*
X10264786Y-19492357D01*
X10279071Y-19549500D01*
X10279071Y-19620929D01*
X10264786Y-19678072D01*
X10250500Y-19706643D01*
X10236214Y-19720929D01*
X10207643Y-19735214D01*
X10179071Y-19735214D01*
X10150500Y-19720929D01*
X10136214Y-19706643D01*
X10121928Y-19678072D01*
X10107643Y-19620929D01*
X10107643Y-19549500D01*
X10121928Y-19492357D01*
X10136214Y-19463786D01*
X10150500Y-19449500D01*
X10179071Y-19435214D01*
X10550500Y-19435214D02*
X10407643Y-19435214D01*
X10393357Y-19578072D01*
X10407643Y-19563786D01*
X10436214Y-19549500D01*
X10507643Y-19549500D01*
X10536214Y-19563786D01*
X10550500Y-19578072D01*
X10564786Y-19606643D01*
X10564786Y-19678072D01*
X10550500Y-19706643D01*
X10536214Y-19720929D01*
X10507643Y-19735214D01*
X10436214Y-19735214D01*
X10407643Y-19720929D01*
X10393357Y-19706643D01*
X10750500Y-19435214D02*
X10779071Y-19435214D01*
X10807643Y-19449500D01*
X10821928Y-19463786D01*
X10836214Y-19492357D01*
X10850500Y-19549500D01*
X10850500Y-19620929D01*
X10836214Y-19678072D01*
X10821928Y-19706643D01*
X10807643Y-19720929D01*
X10779071Y-19735214D01*
X10750500Y-19735214D01*
X10721928Y-19720929D01*
X10707643Y-19706643D01*
X10693357Y-19678072D01*
X10679071Y-19620929D01*
X10679071Y-19549500D01*
X10693357Y-19492357D01*
X10707643Y-19463786D01*
X10721928Y-19449500D01*
X10750500Y-19435214D01*
X10964786Y-19435214D02*
X10964786Y-19492357D01*
X11079071Y-19435214D02*
X11079071Y-19492357D01*
X11521928Y-19849500D02*
X11507643Y-19835214D01*
X11479071Y-19792357D01*
X11464785Y-19763786D01*
X11450500Y-19720929D01*
X11436214Y-19649500D01*
X11436214Y-19592357D01*
X11450500Y-19520929D01*
X11464785Y-19478072D01*
X11479071Y-19449500D01*
X11507643Y-19406643D01*
X11521928Y-19392357D01*
X11764785Y-19535214D02*
X11764785Y-19735214D01*
X11693357Y-19420929D02*
X11621928Y-19635214D01*
X11807643Y-19635214D01*
X11936214Y-19735214D02*
X11993357Y-19735214D01*
X12021928Y-19720929D01*
X12036214Y-19706643D01*
X12064785Y-19663786D01*
X12079071Y-19606643D01*
X12079071Y-19492357D01*
X12064785Y-19463786D01*
X12050500Y-19449500D01*
X12021928Y-19435214D01*
X11964785Y-19435214D01*
X11936214Y-19449500D01*
X11921928Y-19463786D01*
X11907643Y-19492357D01*
X11907643Y-19563786D01*
X11921928Y-19592357D01*
X11936214Y-19606643D01*
X11964785Y-19620929D01*
X12021928Y-19620929D01*
X12050500Y-19606643D01*
X12064785Y-19592357D01*
X12079071Y-19563786D01*
X12436214Y-19735214D02*
X12436214Y-19435214D01*
X12564785Y-19735214D02*
X12564785Y-19578072D01*
X12550500Y-19549500D01*
X12521928Y-19535214D01*
X12479071Y-19535214D01*
X12450500Y-19549500D01*
X12436214Y-19563786D01*
X12750500Y-19735214D02*
X12721928Y-19720929D01*
X12707643Y-19706643D01*
X12693357Y-19678072D01*
X12693357Y-19592357D01*
X12707643Y-19563786D01*
X12721928Y-19549500D01*
X12750500Y-19535214D01*
X12793357Y-19535214D01*
X12821928Y-19549500D01*
X12836214Y-19563786D01*
X12850500Y-19592357D01*
X12850500Y-19678072D01*
X12836214Y-19706643D01*
X12821928Y-19720929D01*
X12793357Y-19735214D01*
X12750500Y-19735214D01*
X13021928Y-19735214D02*
X12993357Y-19720929D01*
X12979071Y-19692357D01*
X12979071Y-19435214D01*
X13250500Y-19720929D02*
X13221928Y-19735214D01*
X13164786Y-19735214D01*
X13136214Y-19720929D01*
X13121928Y-19692357D01*
X13121928Y-19578072D01*
X13136214Y-19549500D01*
X13164786Y-19535214D01*
X13221928Y-19535214D01*
X13250500Y-19549500D01*
X13264786Y-19578072D01*
X13264786Y-19606643D01*
X13121928Y-19635214D01*
X13379071Y-19720929D02*
X13407643Y-19735214D01*
X13464786Y-19735214D01*
X13493357Y-19720929D01*
X13507643Y-19692357D01*
X13507643Y-19678072D01*
X13493357Y-19649500D01*
X13464786Y-19635214D01*
X13421928Y-19635214D01*
X13393357Y-19620929D01*
X13379071Y-19592357D01*
X13379071Y-19578072D01*
X13393357Y-19549500D01*
X13421928Y-19535214D01*
X13464786Y-19535214D01*
X13493357Y-19549500D01*
X13607643Y-19849500D02*
X13621928Y-19835214D01*
X13650500Y-19792357D01*
X13664786Y-19763786D01*
X13679071Y-19720929D01*
X13693357Y-19649500D01*
X13693357Y-19592357D01*
X13679071Y-19520929D01*
X13664786Y-19478072D01*
X13650500Y-19449500D01*
X13621928Y-19406643D01*
X13607643Y-19392357D01*
M02*
