G04 #@! TF.FileFunction,Copper,L1,Top,Signal*
%FSLAX46Y46*%
G04 Gerber Fmt 4.6, Leading zero omitted, Abs format (unit mm)*
G04 Created by KiCad (PCBNEW 4.0.5+dfsg1-4) date Sun May 13 10:15:53 2018*
%MOMM*%
%LPD*%
G01*
G04 APERTURE LIST*
%ADD10C,0.100000*%
%ADD11R,1.300000X1.300000*%
%ADD12C,1.300000*%
%ADD13C,1.998980*%
%ADD14R,1.998980X1.998980*%
%ADD15R,2.032000X2.032000*%
%ADD16O,2.032000X2.032000*%
%ADD17R,2.235200X2.235200*%
%ADD18R,2.032000X1.727200*%
%ADD19O,2.032000X1.727200*%
%ADD20O,0.899160X1.501140*%
%ADD21R,1.397000X1.397000*%
%ADD22C,1.397000*%
%ADD23O,2.300000X1.600000*%
%ADD24O,2.524000X1.524000*%
%ADD25C,0.600000*%
%ADD26C,0.250000*%
%ADD27C,0.254000*%
G04 APERTURE END LIST*
D10*
D11*
X76200000Y-101600000D03*
D12*
X78700000Y-101600000D03*
D11*
X76200000Y-93980000D03*
D12*
X78700000Y-93980000D03*
D13*
X113030000Y-93980000D03*
D14*
X116840000Y-93980000D03*
D13*
X113030000Y-99060000D03*
D14*
X116840000Y-99060000D03*
D13*
X113030000Y-109220000D03*
D14*
X116840000Y-109220000D03*
D13*
X113030000Y-114300000D03*
D14*
X116840000Y-114300000D03*
D13*
X113030000Y-119380000D03*
D14*
X116840000Y-119380000D03*
D13*
X113030000Y-124460000D03*
D14*
X116840000Y-124460000D03*
D13*
X113030000Y-129540000D03*
D14*
X116840000Y-129540000D03*
D13*
X113030000Y-134620000D03*
D14*
X116840000Y-134620000D03*
D13*
X120650000Y-88900000D03*
D14*
X124460000Y-88900000D03*
D13*
X120650000Y-93980000D03*
D14*
X124460000Y-93980000D03*
D13*
X120650000Y-99060000D03*
D14*
X124460000Y-99060000D03*
D13*
X120650000Y-104140000D03*
D14*
X124460000Y-104140000D03*
D13*
X120650000Y-119380000D03*
D14*
X124460000Y-119380000D03*
D13*
X120650000Y-124460000D03*
D14*
X124460000Y-124460000D03*
D13*
X120650000Y-129540000D03*
D14*
X124460000Y-129540000D03*
D13*
X120650000Y-134620000D03*
D14*
X124460000Y-134620000D03*
D13*
X128270000Y-88900000D03*
D14*
X132080000Y-88900000D03*
D13*
X128270000Y-99060000D03*
D14*
X132080000Y-99060000D03*
D13*
X128270000Y-104140000D03*
D14*
X132080000Y-104140000D03*
D13*
X128270000Y-109220000D03*
D14*
X132080000Y-109220000D03*
D13*
X128270000Y-114300000D03*
D14*
X132080000Y-114300000D03*
D13*
X128270000Y-119380000D03*
D14*
X132080000Y-119380000D03*
D13*
X128270000Y-124460000D03*
D14*
X132080000Y-124460000D03*
D13*
X128270000Y-129540000D03*
D14*
X132080000Y-129540000D03*
D13*
X128270000Y-134620000D03*
D14*
X132080000Y-134620000D03*
D13*
X135890000Y-93980000D03*
D14*
X139700000Y-93980000D03*
D13*
X135890000Y-99060000D03*
D14*
X139700000Y-99060000D03*
D13*
X135890000Y-109220000D03*
D14*
X139700000Y-109220000D03*
D13*
X135890000Y-114300000D03*
D14*
X139700000Y-114300000D03*
D13*
X135890000Y-124460000D03*
D14*
X139700000Y-124460000D03*
D13*
X135890000Y-129540000D03*
D14*
X139700000Y-129540000D03*
D13*
X135890000Y-134620000D03*
D14*
X139700000Y-134620000D03*
D13*
X143510000Y-93980000D03*
D14*
X147320000Y-93980000D03*
D13*
X143510000Y-114300000D03*
D14*
X147320000Y-114300000D03*
D13*
X143510000Y-124460000D03*
D14*
X147320000Y-124460000D03*
D13*
X143510000Y-134620000D03*
D14*
X147320000Y-134620000D03*
D13*
X151130000Y-104140000D03*
D14*
X154940000Y-104140000D03*
D13*
X151130000Y-109220000D03*
D14*
X154940000Y-109220000D03*
D13*
X151130000Y-114300000D03*
D14*
X154940000Y-114300000D03*
D13*
X151130000Y-124460000D03*
D14*
X154940000Y-124460000D03*
D13*
X151130000Y-129540000D03*
D14*
X154940000Y-129540000D03*
D13*
X151130000Y-134620000D03*
D14*
X154940000Y-134620000D03*
D13*
X158750000Y-93980000D03*
D14*
X162560000Y-93980000D03*
D13*
X158750000Y-99060000D03*
D14*
X162560000Y-99060000D03*
D13*
X158750000Y-104140000D03*
D14*
X162560000Y-104140000D03*
D13*
X158750000Y-109220000D03*
D14*
X162560000Y-109220000D03*
D13*
X158750000Y-114300000D03*
D14*
X162560000Y-114300000D03*
D13*
X158750000Y-124460000D03*
D14*
X162560000Y-124460000D03*
D13*
X158750000Y-129540000D03*
D14*
X162560000Y-129540000D03*
D15*
X71120000Y-88900000D03*
D16*
X71120000Y-91440000D03*
D17*
X76200000Y-134620000D03*
D18*
X104140000Y-104140000D03*
D19*
X104140000Y-106680000D03*
X104140000Y-109220000D03*
X104140000Y-111760000D03*
X104140000Y-114300000D03*
X104140000Y-116840000D03*
X104140000Y-119380000D03*
X104140000Y-121920000D03*
X104140000Y-124460000D03*
X104140000Y-127000000D03*
D20*
X115570000Y-142240000D03*
X114300000Y-142240000D03*
X116840000Y-142240000D03*
X123190000Y-142240000D03*
X121920000Y-142240000D03*
X124460000Y-142240000D03*
X130810000Y-142240000D03*
X129540000Y-142240000D03*
X132080000Y-142240000D03*
X138430000Y-142240000D03*
X137160000Y-142240000D03*
X139700000Y-142240000D03*
X146050000Y-142240000D03*
X144780000Y-142240000D03*
X147320000Y-142240000D03*
X153670000Y-142240000D03*
X152400000Y-142240000D03*
X154940000Y-142240000D03*
X161290000Y-142240000D03*
X160020000Y-142240000D03*
X162560000Y-142240000D03*
D21*
X76200000Y-121920000D03*
D22*
X76200000Y-124460000D03*
X76200000Y-127000000D03*
D23*
X83820000Y-96520000D03*
X83820000Y-99060000D03*
X83820000Y-101600000D03*
X83820000Y-104140000D03*
X91440000Y-104140000D03*
X91440000Y-101600000D03*
X91440000Y-99060000D03*
X91440000Y-96520000D03*
X83820000Y-114300000D03*
X83820000Y-116840000D03*
X83820000Y-119380000D03*
X83820000Y-121920000D03*
X83820000Y-124460000D03*
X83820000Y-127000000D03*
X83820000Y-129540000D03*
X83820000Y-132080000D03*
X91440000Y-132080000D03*
X91440000Y-129540000D03*
X91440000Y-127000000D03*
X91440000Y-124460000D03*
X91440000Y-121920000D03*
X91440000Y-119380000D03*
X91440000Y-116840000D03*
X91440000Y-114300000D03*
D20*
X87630000Y-88900000D03*
X86360000Y-88900000D03*
X88900000Y-88900000D03*
D24*
X96520000Y-152400000D03*
X96520000Y-149860000D03*
X96520000Y-147320000D03*
X96520000Y-144780000D03*
X96520000Y-142240000D03*
X81280000Y-142240000D03*
X81280000Y-144780000D03*
X81280000Y-147320000D03*
X81280000Y-149860000D03*
X81280000Y-152400000D03*
D13*
X78740000Y-109220000D03*
X78740000Y-116840000D03*
X73660000Y-116840000D03*
X73660000Y-109220000D03*
X114300000Y-149860000D03*
X114300000Y-157480000D03*
X121920000Y-149860000D03*
X121920000Y-157480000D03*
X129540000Y-149860000D03*
X129540000Y-157480000D03*
X137160000Y-149860000D03*
X137160000Y-157480000D03*
X144780000Y-149860000D03*
X144780000Y-157480000D03*
X152400000Y-149860000D03*
X152400000Y-157480000D03*
X160020000Y-149860000D03*
X160020000Y-157480000D03*
D25*
X89535000Y-122555000D03*
X88900000Y-128270000D03*
X96520000Y-106680000D03*
X88900000Y-109220000D03*
X99060000Y-116840000D03*
X99060000Y-119380000D03*
X99060000Y-121920000D03*
X99060000Y-127000000D03*
X96520000Y-158750000D03*
X129540000Y-154940000D03*
X144780000Y-160020000D03*
X93980000Y-158750000D03*
D26*
X76200000Y-101600000D02*
X76200000Y-106680000D01*
X76200000Y-106680000D02*
X73660000Y-109220000D01*
X76200000Y-101600000D02*
X78740000Y-99060000D01*
X78740000Y-99060000D02*
X83820000Y-99060000D01*
X91440000Y-101600000D02*
X86360000Y-101600000D01*
X86360000Y-101600000D02*
X83820000Y-99060000D01*
X89535000Y-127635000D02*
X89535000Y-122555000D01*
X88900000Y-128270000D02*
X89535000Y-127635000D01*
X78740000Y-116840000D02*
X78740000Y-114300000D01*
X92710000Y-99060000D02*
X91440000Y-99060000D01*
X93980000Y-100330000D02*
X92710000Y-99060000D01*
X93980000Y-106680000D02*
X93980000Y-100330000D01*
X92710000Y-107950000D02*
X93980000Y-106680000D01*
X85090000Y-107950000D02*
X92710000Y-107950000D01*
X78740000Y-114300000D02*
X85090000Y-107950000D01*
X73660000Y-116840000D02*
X78740000Y-116840000D01*
X76200000Y-93980000D02*
X74295000Y-93980000D01*
X72390000Y-88900000D02*
X71120000Y-88900000D01*
X73660000Y-90170000D02*
X72390000Y-88900000D01*
X73660000Y-93345000D02*
X73660000Y-90170000D01*
X74295000Y-93980000D02*
X73660000Y-93345000D01*
X143510000Y-93980000D02*
X143510000Y-92710000D01*
X143510000Y-92710000D02*
X144780000Y-91440000D01*
X158750000Y-92710000D02*
X158750000Y-93980000D01*
X157480000Y-91440000D02*
X158750000Y-92710000D01*
X144780000Y-91440000D02*
X157480000Y-91440000D01*
X135890000Y-93980000D02*
X135890000Y-92710000D01*
X135890000Y-92710000D02*
X137160000Y-91440000D01*
X142240000Y-91440000D02*
X143510000Y-92710000D01*
X137160000Y-91440000D02*
X142240000Y-91440000D01*
X120650000Y-93980000D02*
X120650000Y-92710000D01*
X120650000Y-92710000D02*
X121920000Y-91440000D01*
X134620000Y-91440000D02*
X135890000Y-92710000D01*
X121920000Y-91440000D02*
X134620000Y-91440000D01*
X113030000Y-93980000D02*
X113030000Y-92710000D01*
X119380000Y-91440000D02*
X120650000Y-92710000D01*
X114300000Y-91440000D02*
X119380000Y-91440000D01*
X113030000Y-92710000D02*
X114300000Y-91440000D01*
X104140000Y-106680000D02*
X106680000Y-104140000D01*
X111760000Y-93980000D02*
X113030000Y-93980000D01*
X106680000Y-99060000D02*
X111760000Y-93980000D01*
X106680000Y-104140000D02*
X106680000Y-99060000D01*
X83820000Y-116840000D02*
X85090000Y-116840000D01*
X96520000Y-106680000D02*
X104140000Y-106680000D01*
X86360000Y-111760000D02*
X88900000Y-109220000D01*
X86360000Y-115570000D02*
X86360000Y-111760000D01*
X85090000Y-116840000D02*
X86360000Y-115570000D01*
X120650000Y-99060000D02*
X120650000Y-97790000D01*
X120650000Y-97790000D02*
X119380000Y-96520000D01*
X113030000Y-97790000D02*
X113030000Y-99060000D01*
X114300000Y-96520000D02*
X113030000Y-97790000D01*
X119380000Y-96520000D02*
X114300000Y-96520000D01*
X128270000Y-99060000D02*
X128270000Y-97790000D01*
X128270000Y-97790000D02*
X127000000Y-96520000D01*
X121920000Y-96520000D02*
X120650000Y-97790000D01*
X127000000Y-96520000D02*
X121920000Y-96520000D01*
X135890000Y-99060000D02*
X135890000Y-97790000D01*
X135890000Y-97790000D02*
X134620000Y-96520000D01*
X129540000Y-96520000D02*
X128270000Y-97790000D01*
X134620000Y-96520000D02*
X129540000Y-96520000D01*
X158750000Y-99060000D02*
X158750000Y-97790000D01*
X137160000Y-96520000D02*
X135890000Y-97790000D01*
X157480000Y-96520000D02*
X137160000Y-96520000D01*
X158750000Y-97790000D02*
X157480000Y-96520000D01*
X113030000Y-99060000D02*
X113030000Y-100330000D01*
X113030000Y-100330000D02*
X104140000Y-109220000D01*
X104140000Y-109220000D02*
X93980000Y-109220000D01*
X85090000Y-120650000D02*
X83820000Y-121920000D01*
X88900000Y-116840000D02*
X85090000Y-120650000D01*
X88900000Y-111760000D02*
X88900000Y-116840000D01*
X90170000Y-110490000D02*
X88900000Y-111760000D01*
X92710000Y-110490000D02*
X90170000Y-110490000D01*
X93980000Y-109220000D02*
X92710000Y-110490000D01*
X128270000Y-107950000D02*
X128270000Y-109220000D01*
X135890000Y-107950000D02*
X135890000Y-109220000D01*
X151130000Y-107950000D02*
X151130000Y-109220000D01*
X113030000Y-109220000D02*
X113030000Y-107950000D01*
X158750000Y-107950000D02*
X158750000Y-109220000D01*
X157480000Y-106680000D02*
X158750000Y-107950000D01*
X152400000Y-106680000D02*
X157480000Y-106680000D01*
X151130000Y-107950000D02*
X152400000Y-106680000D01*
X149860000Y-106680000D02*
X151130000Y-107950000D01*
X137160000Y-106680000D02*
X149860000Y-106680000D01*
X135890000Y-107950000D02*
X137160000Y-106680000D01*
X134620000Y-106680000D02*
X135890000Y-107950000D01*
X129540000Y-106680000D02*
X134620000Y-106680000D01*
X128270000Y-107950000D02*
X129540000Y-106680000D01*
X127000000Y-106680000D02*
X128270000Y-107950000D01*
X114300000Y-106680000D02*
X127000000Y-106680000D01*
X113030000Y-107950000D02*
X114300000Y-106680000D01*
X104140000Y-114300000D02*
X107950000Y-114300000D01*
X107950000Y-114300000D02*
X113030000Y-109220000D01*
X104140000Y-114300000D02*
X100330000Y-114300000D01*
X93980000Y-129540000D02*
X91440000Y-129540000D01*
X95250000Y-128270000D02*
X93980000Y-129540000D01*
X95250000Y-119380000D02*
X95250000Y-128270000D01*
X100330000Y-114300000D02*
X95250000Y-119380000D01*
X135890000Y-113030000D02*
X135890000Y-114300000D01*
X143510000Y-113030000D02*
X143510000Y-114300000D01*
X151130000Y-113030000D02*
X151130000Y-114300000D01*
X128270000Y-114300000D02*
X128270000Y-113030000D01*
X128270000Y-113030000D02*
X129540000Y-111760000D01*
X158750000Y-113030000D02*
X158750000Y-114300000D01*
X157480000Y-111760000D02*
X158750000Y-113030000D01*
X152400000Y-111760000D02*
X157480000Y-111760000D01*
X151130000Y-113030000D02*
X152400000Y-111760000D01*
X149860000Y-111760000D02*
X151130000Y-113030000D01*
X144780000Y-111760000D02*
X149860000Y-111760000D01*
X143510000Y-113030000D02*
X144780000Y-111760000D01*
X142240000Y-111760000D02*
X143510000Y-113030000D01*
X137160000Y-111760000D02*
X142240000Y-111760000D01*
X135890000Y-113030000D02*
X137160000Y-111760000D01*
X134620000Y-111760000D02*
X135890000Y-113030000D01*
X129540000Y-111760000D02*
X134620000Y-111760000D01*
X113030000Y-114300000D02*
X113030000Y-113030000D01*
X127000000Y-111760000D02*
X128270000Y-113030000D01*
X114300000Y-111760000D02*
X127000000Y-111760000D01*
X113030000Y-113030000D02*
X114300000Y-111760000D01*
X113030000Y-114300000D02*
X111760000Y-114300000D01*
X109220000Y-116840000D02*
X104140000Y-116840000D01*
X111760000Y-114300000D02*
X109220000Y-116840000D01*
X104140000Y-116840000D02*
X99060000Y-116840000D01*
X120650000Y-119380000D02*
X120650000Y-118110000D01*
X120650000Y-118110000D02*
X121920000Y-116840000D01*
X128270000Y-118110000D02*
X128270000Y-119380000D01*
X127000000Y-116840000D02*
X128270000Y-118110000D01*
X121920000Y-116840000D02*
X127000000Y-116840000D01*
X113030000Y-119380000D02*
X113030000Y-118110000D01*
X119380000Y-116840000D02*
X120650000Y-118110000D01*
X114300000Y-116840000D02*
X119380000Y-116840000D01*
X113030000Y-118110000D02*
X114300000Y-116840000D01*
X113030000Y-119380000D02*
X104140000Y-119380000D01*
X99060000Y-119380000D02*
X104140000Y-119380000D01*
X151130000Y-124460000D02*
X151130000Y-123190000D01*
X151130000Y-123190000D02*
X152400000Y-121920000D01*
X158750000Y-123190000D02*
X158750000Y-124460000D01*
X157480000Y-121920000D02*
X158750000Y-123190000D01*
X152400000Y-121920000D02*
X157480000Y-121920000D01*
X143510000Y-124460000D02*
X143510000Y-123190000D01*
X143510000Y-123190000D02*
X144780000Y-121920000D01*
X149860000Y-121920000D02*
X151130000Y-123190000D01*
X144780000Y-121920000D02*
X149860000Y-121920000D01*
X135890000Y-124460000D02*
X135890000Y-123190000D01*
X135890000Y-123190000D02*
X137160000Y-121920000D01*
X142240000Y-121920000D02*
X143510000Y-123190000D01*
X137160000Y-121920000D02*
X142240000Y-121920000D01*
X128270000Y-124460000D02*
X128270000Y-123190000D01*
X128270000Y-123190000D02*
X129540000Y-121920000D01*
X134620000Y-121920000D02*
X135890000Y-123190000D01*
X129540000Y-121920000D02*
X134620000Y-121920000D01*
X120650000Y-124460000D02*
X120650000Y-123190000D01*
X120650000Y-123190000D02*
X121920000Y-121920000D01*
X127000000Y-121920000D02*
X128270000Y-123190000D01*
X121920000Y-121920000D02*
X127000000Y-121920000D01*
X113030000Y-124460000D02*
X113030000Y-123190000D01*
X119380000Y-121920000D02*
X120650000Y-123190000D01*
X114300000Y-121920000D02*
X119380000Y-121920000D01*
X113030000Y-123190000D02*
X114300000Y-121920000D01*
X113030000Y-124460000D02*
X111760000Y-124460000D01*
X109220000Y-121920000D02*
X104140000Y-121920000D01*
X111760000Y-124460000D02*
X109220000Y-121920000D01*
X104140000Y-121920000D02*
X99060000Y-121920000D01*
X120650000Y-129540000D02*
X120650000Y-128270000D01*
X120650000Y-128270000D02*
X119380000Y-127000000D01*
X114300000Y-127000000D02*
X113030000Y-128270000D01*
X119380000Y-127000000D02*
X114300000Y-127000000D01*
X113030000Y-128270000D02*
X113030000Y-129540000D01*
X128270000Y-129540000D02*
X128270000Y-128270000D01*
X128270000Y-128270000D02*
X127000000Y-127000000D01*
X121920000Y-127000000D02*
X120650000Y-128270000D01*
X127000000Y-127000000D02*
X121920000Y-127000000D01*
X135890000Y-129540000D02*
X135890000Y-128270000D01*
X135890000Y-128270000D02*
X134620000Y-127000000D01*
X129540000Y-127000000D02*
X128270000Y-128270000D01*
X134620000Y-127000000D02*
X129540000Y-127000000D01*
X151130000Y-129540000D02*
X151130000Y-128270000D01*
X151130000Y-128270000D02*
X149860000Y-127000000D01*
X137160000Y-127000000D02*
X135890000Y-128270000D01*
X149860000Y-127000000D02*
X137160000Y-127000000D01*
X158750000Y-129540000D02*
X158750000Y-128270000D01*
X152400000Y-127000000D02*
X151130000Y-128270000D01*
X157480000Y-127000000D02*
X152400000Y-127000000D01*
X158750000Y-128270000D02*
X157480000Y-127000000D01*
X113030000Y-129540000D02*
X113030000Y-128270000D01*
X109220000Y-124460000D02*
X104140000Y-124460000D01*
X113030000Y-128270000D02*
X109220000Y-124460000D01*
X104140000Y-124460000D02*
X100330000Y-124460000D01*
X92710000Y-132080000D02*
X91440000Y-132080000D01*
X100330000Y-124460000D02*
X92710000Y-132080000D01*
X143510000Y-134620000D02*
X143510000Y-133350000D01*
X143510000Y-133350000D02*
X144780000Y-132080000D01*
X151130000Y-133350000D02*
X151130000Y-134620000D01*
X149860000Y-132080000D02*
X151130000Y-133350000D01*
X144780000Y-132080000D02*
X149860000Y-132080000D01*
X135890000Y-134620000D02*
X135890000Y-133350000D01*
X135890000Y-133350000D02*
X137160000Y-132080000D01*
X142240000Y-132080000D02*
X143510000Y-133350000D01*
X137160000Y-132080000D02*
X142240000Y-132080000D01*
X128270000Y-134620000D02*
X128270000Y-133350000D01*
X128270000Y-133350000D02*
X129540000Y-132080000D01*
X134620000Y-132080000D02*
X135890000Y-133350000D01*
X129540000Y-132080000D02*
X134620000Y-132080000D01*
X120650000Y-134620000D02*
X120650000Y-133350000D01*
X120650000Y-133350000D02*
X121920000Y-132080000D01*
X127000000Y-132080000D02*
X128270000Y-133350000D01*
X121920000Y-132080000D02*
X127000000Y-132080000D01*
X113030000Y-134620000D02*
X113030000Y-133350000D01*
X119380000Y-132080000D02*
X120650000Y-133350000D01*
X114300000Y-132080000D02*
X119380000Y-132080000D01*
X113030000Y-133350000D02*
X114300000Y-132080000D01*
X113030000Y-134620000D02*
X111760000Y-134620000D01*
X111760000Y-134620000D02*
X104140000Y-127000000D01*
X104140000Y-127000000D02*
X99060000Y-127000000D01*
X120650000Y-88900000D02*
X120904000Y-88900000D01*
X120904000Y-88900000D02*
X122936000Y-86868000D01*
X126238000Y-86868000D02*
X128270000Y-88900000D01*
X122936000Y-86868000D02*
X126238000Y-86868000D01*
X120650000Y-88900000D02*
X109220000Y-88900000D01*
X104140000Y-93980000D02*
X104140000Y-104140000D01*
X109220000Y-88900000D02*
X104140000Y-93980000D01*
X83820000Y-119380000D02*
X87630000Y-115570000D01*
X97790000Y-104140000D02*
X104140000Y-104140000D01*
X92710000Y-109220000D02*
X97790000Y-104140000D01*
X90170000Y-109220000D02*
X92710000Y-109220000D01*
X87630000Y-111760000D02*
X90170000Y-109220000D01*
X87630000Y-115570000D02*
X87630000Y-111760000D01*
X128270000Y-102870000D02*
X128270000Y-104140000D01*
X151130000Y-104140000D02*
X151130000Y-102870000D01*
X120650000Y-104140000D02*
X120650000Y-102870000D01*
X158750000Y-102870000D02*
X158750000Y-104140000D01*
X157480000Y-101600000D02*
X158750000Y-102870000D01*
X152400000Y-101600000D02*
X157480000Y-101600000D01*
X151130000Y-102870000D02*
X152400000Y-101600000D01*
X149860000Y-101600000D02*
X151130000Y-102870000D01*
X129540000Y-101600000D02*
X149860000Y-101600000D01*
X128270000Y-102870000D02*
X129540000Y-101600000D01*
X127000000Y-101600000D02*
X128270000Y-102870000D01*
X121920000Y-101600000D02*
X127000000Y-101600000D01*
X120650000Y-102870000D02*
X121920000Y-101600000D01*
X120650000Y-104140000D02*
X114300000Y-104140000D01*
X106680000Y-111760000D02*
X104140000Y-111760000D01*
X114300000Y-104140000D02*
X106680000Y-111760000D01*
X104140000Y-111760000D02*
X101600000Y-111760000D01*
X86360000Y-129540000D02*
X83820000Y-129540000D01*
X87630000Y-128270000D02*
X86360000Y-129540000D01*
X87630000Y-123190000D02*
X87630000Y-128270000D01*
X90170000Y-120650000D02*
X87630000Y-123190000D01*
X92710000Y-120650000D02*
X90170000Y-120650000D01*
X101600000Y-111760000D02*
X92710000Y-120650000D01*
X78740000Y-124460000D02*
X78740000Y-128270000D01*
X76200000Y-130810000D02*
X76200000Y-134620000D01*
X78740000Y-128270000D02*
X76200000Y-130810000D01*
X76200000Y-124460000D02*
X78740000Y-124460000D01*
X78740000Y-124460000D02*
X81280000Y-124460000D01*
X88900000Y-119380000D02*
X91440000Y-119380000D01*
X85090000Y-123190000D02*
X88900000Y-119380000D01*
X82550000Y-123190000D02*
X85090000Y-123190000D01*
X81280000Y-124460000D02*
X82550000Y-123190000D01*
X114300000Y-142240000D02*
X114300000Y-149860000D01*
X121920000Y-142240000D02*
X121920000Y-149860000D01*
X129540000Y-142240000D02*
X129540000Y-149860000D01*
X137160000Y-142240000D02*
X137160000Y-149860000D01*
X144780000Y-142240000D02*
X144780000Y-149860000D01*
X152400000Y-142240000D02*
X152400000Y-149860000D01*
X160020000Y-142240000D02*
X160020000Y-149860000D01*
X114300000Y-157480000D02*
X96520000Y-157480000D01*
X83820000Y-144780000D02*
X81280000Y-144780000D01*
X96520000Y-157480000D02*
X83820000Y-144780000D01*
X121920000Y-157480000D02*
X116840000Y-157480000D01*
X82550000Y-142240000D02*
X81280000Y-142240000D01*
X95250000Y-154940000D02*
X82550000Y-142240000D01*
X114300000Y-154940000D02*
X95250000Y-154940000D01*
X116840000Y-157480000D02*
X114300000Y-154940000D01*
X129540000Y-157480000D02*
X128270000Y-157480000D01*
X99060000Y-144780000D02*
X96520000Y-144780000D01*
X106680000Y-152400000D02*
X99060000Y-144780000D01*
X123190000Y-152400000D02*
X106680000Y-152400000D01*
X128270000Y-157480000D02*
X123190000Y-152400000D01*
X125730000Y-158750000D02*
X125730000Y-157480000D01*
X133350000Y-157480000D02*
X130810000Y-160020000D01*
X130810000Y-160020000D02*
X127000000Y-160020000D01*
X127000000Y-160020000D02*
X125730000Y-158750000D01*
X137160000Y-157480000D02*
X133350000Y-157480000D01*
X99060000Y-149860000D02*
X96520000Y-149860000D01*
X102870000Y-153670000D02*
X99060000Y-149860000D01*
X121920000Y-153670000D02*
X102870000Y-153670000D01*
X125730000Y-157480000D02*
X121920000Y-153670000D01*
X144780000Y-157480000D02*
X140970000Y-157480000D01*
X99060000Y-161290000D02*
X96520000Y-158750000D01*
X137160000Y-161290000D02*
X99060000Y-161290000D01*
X140970000Y-157480000D02*
X137160000Y-161290000D01*
X151130000Y-157480000D02*
X152400000Y-157480000D01*
X148590000Y-154940000D02*
X151130000Y-157480000D01*
X129540000Y-154940000D02*
X148590000Y-154940000D01*
X81280000Y-152400000D02*
X87630000Y-152400000D01*
X158750000Y-157480000D02*
X160020000Y-157480000D01*
X156210000Y-160020000D02*
X158750000Y-157480000D01*
X144780000Y-160020000D02*
X156210000Y-160020000D01*
X87630000Y-152400000D02*
X93980000Y-158750000D01*
X83820000Y-101600000D02*
X80010000Y-105410000D01*
X74930000Y-121920000D02*
X76200000Y-121920000D01*
X71120000Y-118110000D02*
X74930000Y-121920000D01*
X71120000Y-115570000D02*
X71120000Y-118110000D01*
X76200000Y-110490000D02*
X71120000Y-115570000D01*
X76200000Y-109220000D02*
X76200000Y-110490000D01*
X80010000Y-105410000D02*
X76200000Y-109220000D01*
D27*
G36*
X86868000Y-87659642D02*
X86653935Y-87555019D01*
X86487000Y-87681932D01*
X86487000Y-88773000D01*
X86507000Y-88773000D01*
X86507000Y-89027000D01*
X86487000Y-89027000D01*
X86487000Y-90118068D01*
X86653935Y-90244981D01*
X86868000Y-90140358D01*
X86868000Y-93853000D01*
X79985112Y-93853000D01*
X79985223Y-93725519D01*
X79790005Y-93253057D01*
X79428845Y-92891265D01*
X78956724Y-92695223D01*
X78445519Y-92694777D01*
X77973057Y-92889995D01*
X77611265Y-93251155D01*
X77485000Y-93555235D01*
X77485000Y-93203690D01*
X77388327Y-92970301D01*
X77209698Y-92791673D01*
X76976309Y-92695000D01*
X76485750Y-92695000D01*
X76327000Y-92853750D01*
X76327000Y-93853000D01*
X76073000Y-93853000D01*
X76073000Y-92853750D01*
X75914250Y-92695000D01*
X75423691Y-92695000D01*
X75190302Y-92791673D01*
X75011673Y-92970301D01*
X74915000Y-93203690D01*
X74915000Y-93694250D01*
X75073748Y-93852998D01*
X74915000Y-93852998D01*
X74915000Y-93853000D01*
X69290000Y-93853000D01*
X69290000Y-91440000D01*
X69436655Y-91440000D01*
X69562330Y-92071810D01*
X69920222Y-92607433D01*
X70455845Y-92965325D01*
X71087655Y-93091000D01*
X71152345Y-93091000D01*
X71784155Y-92965325D01*
X72319778Y-92607433D01*
X72677670Y-92071810D01*
X72803345Y-91440000D01*
X72677670Y-90808190D01*
X72453034Y-90471999D01*
X72495698Y-90454327D01*
X72674327Y-90275699D01*
X72771000Y-90042310D01*
X72771000Y-89185750D01*
X72612250Y-89027000D01*
X85275420Y-89027000D01*
X85275420Y-89327990D01*
X85406580Y-89733373D01*
X85682889Y-90057706D01*
X86066065Y-90244981D01*
X86233000Y-90118068D01*
X86233000Y-89027000D01*
X85275420Y-89027000D01*
X72612250Y-89027000D01*
X71247000Y-89027000D01*
X71247000Y-89047000D01*
X70993000Y-89047000D01*
X70993000Y-89027000D01*
X69627750Y-89027000D01*
X69469000Y-89185750D01*
X69469000Y-90042310D01*
X69565673Y-90275699D01*
X69744302Y-90454327D01*
X69786966Y-90471999D01*
X69562330Y-90808190D01*
X69436655Y-91440000D01*
X69290000Y-91440000D01*
X69290000Y-87757690D01*
X69469000Y-87757690D01*
X69469000Y-88614250D01*
X69627750Y-88773000D01*
X70993000Y-88773000D01*
X70993000Y-87407750D01*
X71247000Y-87407750D01*
X71247000Y-88773000D01*
X72612250Y-88773000D01*
X72771000Y-88614250D01*
X72771000Y-88472010D01*
X85275420Y-88472010D01*
X85275420Y-88773000D01*
X86233000Y-88773000D01*
X86233000Y-87681932D01*
X86066065Y-87555019D01*
X85682889Y-87742294D01*
X85406580Y-88066627D01*
X85275420Y-88472010D01*
X72771000Y-88472010D01*
X72771000Y-87757690D01*
X72674327Y-87524301D01*
X72495698Y-87345673D01*
X72262309Y-87249000D01*
X71405750Y-87249000D01*
X71247000Y-87407750D01*
X70993000Y-87407750D01*
X70834250Y-87249000D01*
X69977691Y-87249000D01*
X69744302Y-87345673D01*
X69565673Y-87524301D01*
X69469000Y-87757690D01*
X69290000Y-87757690D01*
X69290000Y-87070000D01*
X86868000Y-87070000D01*
X86868000Y-87659642D01*
X86868000Y-87659642D01*
G37*
X86868000Y-87659642D02*
X86653935Y-87555019D01*
X86487000Y-87681932D01*
X86487000Y-88773000D01*
X86507000Y-88773000D01*
X86507000Y-89027000D01*
X86487000Y-89027000D01*
X86487000Y-90118068D01*
X86653935Y-90244981D01*
X86868000Y-90140358D01*
X86868000Y-93853000D01*
X79985112Y-93853000D01*
X79985223Y-93725519D01*
X79790005Y-93253057D01*
X79428845Y-92891265D01*
X78956724Y-92695223D01*
X78445519Y-92694777D01*
X77973057Y-92889995D01*
X77611265Y-93251155D01*
X77485000Y-93555235D01*
X77485000Y-93203690D01*
X77388327Y-92970301D01*
X77209698Y-92791673D01*
X76976309Y-92695000D01*
X76485750Y-92695000D01*
X76327000Y-92853750D01*
X76327000Y-93853000D01*
X76073000Y-93853000D01*
X76073000Y-92853750D01*
X75914250Y-92695000D01*
X75423691Y-92695000D01*
X75190302Y-92791673D01*
X75011673Y-92970301D01*
X74915000Y-93203690D01*
X74915000Y-93694250D01*
X75073748Y-93852998D01*
X74915000Y-93852998D01*
X74915000Y-93853000D01*
X69290000Y-93853000D01*
X69290000Y-91440000D01*
X69436655Y-91440000D01*
X69562330Y-92071810D01*
X69920222Y-92607433D01*
X70455845Y-92965325D01*
X71087655Y-93091000D01*
X71152345Y-93091000D01*
X71784155Y-92965325D01*
X72319778Y-92607433D01*
X72677670Y-92071810D01*
X72803345Y-91440000D01*
X72677670Y-90808190D01*
X72453034Y-90471999D01*
X72495698Y-90454327D01*
X72674327Y-90275699D01*
X72771000Y-90042310D01*
X72771000Y-89185750D01*
X72612250Y-89027000D01*
X85275420Y-89027000D01*
X85275420Y-89327990D01*
X85406580Y-89733373D01*
X85682889Y-90057706D01*
X86066065Y-90244981D01*
X86233000Y-90118068D01*
X86233000Y-89027000D01*
X85275420Y-89027000D01*
X72612250Y-89027000D01*
X71247000Y-89027000D01*
X71247000Y-89047000D01*
X70993000Y-89047000D01*
X70993000Y-89027000D01*
X69627750Y-89027000D01*
X69469000Y-89185750D01*
X69469000Y-90042310D01*
X69565673Y-90275699D01*
X69744302Y-90454327D01*
X69786966Y-90471999D01*
X69562330Y-90808190D01*
X69436655Y-91440000D01*
X69290000Y-91440000D01*
X69290000Y-87757690D01*
X69469000Y-87757690D01*
X69469000Y-88614250D01*
X69627750Y-88773000D01*
X70993000Y-88773000D01*
X70993000Y-87407750D01*
X71247000Y-87407750D01*
X71247000Y-88773000D01*
X72612250Y-88773000D01*
X72771000Y-88614250D01*
X72771000Y-88472010D01*
X85275420Y-88472010D01*
X85275420Y-88773000D01*
X86233000Y-88773000D01*
X86233000Y-87681932D01*
X86066065Y-87555019D01*
X85682889Y-87742294D01*
X85406580Y-88066627D01*
X85275420Y-88472010D01*
X72771000Y-88472010D01*
X72771000Y-87757690D01*
X72674327Y-87524301D01*
X72495698Y-87345673D01*
X72262309Y-87249000D01*
X71405750Y-87249000D01*
X71247000Y-87407750D01*
X70993000Y-87407750D01*
X70834250Y-87249000D01*
X69977691Y-87249000D01*
X69744302Y-87345673D01*
X69565673Y-87524301D01*
X69469000Y-87757690D01*
X69290000Y-87757690D01*
X69290000Y-87070000D01*
X86868000Y-87070000D01*
X86868000Y-87659642D01*
G36*
X85822599Y-102137401D02*
X86069160Y-102302148D01*
X86117414Y-102311746D01*
X86360000Y-102360000D01*
X89870148Y-102360000D01*
X90040332Y-102614698D01*
X90422418Y-102870000D01*
X90040332Y-103125302D01*
X89729263Y-103590849D01*
X89620030Y-104140000D01*
X89729263Y-104689151D01*
X90040332Y-105154698D01*
X90505879Y-105465767D01*
X91055030Y-105575000D01*
X91824970Y-105575000D01*
X92374121Y-105465767D01*
X92839668Y-105154698D01*
X93150737Y-104689151D01*
X93220000Y-104340943D01*
X93220000Y-106365198D01*
X92395198Y-107190000D01*
X85090000Y-107190000D01*
X84799161Y-107247852D01*
X84552599Y-107412599D01*
X78202599Y-113762599D01*
X78037852Y-114009161D01*
X77980000Y-114300000D01*
X77980000Y-115385504D01*
X77815345Y-115453538D01*
X77355154Y-115912927D01*
X77285779Y-116080000D01*
X75114496Y-116080000D01*
X75046462Y-115915345D01*
X74587073Y-115455154D01*
X73986547Y-115205794D01*
X73336306Y-115205226D01*
X72735345Y-115453538D01*
X72275154Y-115912927D01*
X72025794Y-116513453D01*
X72025226Y-117163694D01*
X72273538Y-117764655D01*
X72732927Y-118224846D01*
X73333453Y-118474206D01*
X73983694Y-118474774D01*
X74584655Y-118226462D01*
X75044846Y-117767073D01*
X75114221Y-117600000D01*
X77285504Y-117600000D01*
X77353538Y-117764655D01*
X77812927Y-118224846D01*
X78413453Y-118474206D01*
X79063694Y-118474774D01*
X79664655Y-118226462D01*
X80124846Y-117767073D01*
X80374206Y-117166547D01*
X80374774Y-116516306D01*
X80126462Y-115915345D01*
X79667073Y-115455154D01*
X79500000Y-115385779D01*
X79500000Y-114614802D01*
X85404802Y-108710000D01*
X88099367Y-108710000D01*
X87965162Y-109033201D01*
X87965121Y-109080077D01*
X85822599Y-111222599D01*
X85657852Y-111469161D01*
X85600000Y-111760000D01*
X85600000Y-114099057D01*
X85530737Y-113750849D01*
X85219668Y-113285302D01*
X84754121Y-112974233D01*
X84204970Y-112865000D01*
X83435030Y-112865000D01*
X82885879Y-112974233D01*
X82420332Y-113285302D01*
X82109263Y-113750849D01*
X82000030Y-114300000D01*
X82109263Y-114849151D01*
X82420332Y-115314698D01*
X82802418Y-115570000D01*
X82420332Y-115825302D01*
X82109263Y-116290849D01*
X82000030Y-116840000D01*
X82109263Y-117389151D01*
X82420332Y-117854698D01*
X82802418Y-118110000D01*
X82420332Y-118365302D01*
X82109263Y-118830849D01*
X82000030Y-119380000D01*
X82109263Y-119929151D01*
X82420332Y-120394698D01*
X82802418Y-120650000D01*
X82420332Y-120905302D01*
X82109263Y-121370849D01*
X82000030Y-121920000D01*
X82109263Y-122469151D01*
X82164169Y-122551323D01*
X82012599Y-122652599D01*
X80965198Y-123700000D01*
X77325536Y-123700000D01*
X76956353Y-123330173D01*
X76801663Y-123265940D01*
X76898500Y-123265940D01*
X77133817Y-123221662D01*
X77349941Y-123082590D01*
X77494931Y-122870390D01*
X77545940Y-122618500D01*
X77545940Y-121221500D01*
X77501662Y-120986183D01*
X77362590Y-120770059D01*
X77150390Y-120625069D01*
X76898500Y-120574060D01*
X75501500Y-120574060D01*
X75266183Y-120618338D01*
X75050059Y-120757410D01*
X74965690Y-120880888D01*
X71880000Y-117795198D01*
X71880000Y-115884802D01*
X76737401Y-111027401D01*
X76902148Y-110780839D01*
X76960000Y-110490000D01*
X76960000Y-110372163D01*
X77767443Y-110372163D01*
X77866042Y-110638965D01*
X78475582Y-110865401D01*
X79125377Y-110841341D01*
X79613958Y-110638965D01*
X79712557Y-110372163D01*
X78740000Y-109399605D01*
X77767443Y-110372163D01*
X76960000Y-110372163D01*
X76960000Y-109534802D01*
X77110474Y-109384328D01*
X77118659Y-109605377D01*
X77321035Y-110093958D01*
X77587837Y-110192557D01*
X78560395Y-109220000D01*
X78919605Y-109220000D01*
X79892163Y-110192557D01*
X80158965Y-110093958D01*
X80385401Y-109484418D01*
X80361341Y-108834623D01*
X80158965Y-108346042D01*
X79892163Y-108247443D01*
X78919605Y-109220000D01*
X78560395Y-109220000D01*
X78546252Y-109205858D01*
X78725858Y-109026252D01*
X78740000Y-109040395D01*
X79712557Y-108067837D01*
X79613958Y-107801035D01*
X79004418Y-107574599D01*
X78916965Y-107577837D01*
X82166290Y-104328512D01*
X82078096Y-104489039D01*
X82095633Y-104571819D01*
X82365500Y-105064896D01*
X82803517Y-105417166D01*
X83343000Y-105575000D01*
X83693000Y-105575000D01*
X83693000Y-104267000D01*
X83947000Y-104267000D01*
X83947000Y-105575000D01*
X84297000Y-105575000D01*
X84836483Y-105417166D01*
X85274500Y-105064896D01*
X85544367Y-104571819D01*
X85561904Y-104489039D01*
X85439915Y-104267000D01*
X83947000Y-104267000D01*
X83693000Y-104267000D01*
X83673000Y-104267000D01*
X83673000Y-104013000D01*
X83693000Y-104013000D01*
X83693000Y-103993000D01*
X83947000Y-103993000D01*
X83947000Y-104013000D01*
X85439915Y-104013000D01*
X85561904Y-103790961D01*
X85544367Y-103708181D01*
X85274500Y-103215104D01*
X84841849Y-102867149D01*
X85219668Y-102614698D01*
X85530737Y-102149151D01*
X85581110Y-101895912D01*
X85822599Y-102137401D01*
X85822599Y-102137401D01*
G37*
X85822599Y-102137401D02*
X86069160Y-102302148D01*
X86117414Y-102311746D01*
X86360000Y-102360000D01*
X89870148Y-102360000D01*
X90040332Y-102614698D01*
X90422418Y-102870000D01*
X90040332Y-103125302D01*
X89729263Y-103590849D01*
X89620030Y-104140000D01*
X89729263Y-104689151D01*
X90040332Y-105154698D01*
X90505879Y-105465767D01*
X91055030Y-105575000D01*
X91824970Y-105575000D01*
X92374121Y-105465767D01*
X92839668Y-105154698D01*
X93150737Y-104689151D01*
X93220000Y-104340943D01*
X93220000Y-106365198D01*
X92395198Y-107190000D01*
X85090000Y-107190000D01*
X84799161Y-107247852D01*
X84552599Y-107412599D01*
X78202599Y-113762599D01*
X78037852Y-114009161D01*
X77980000Y-114300000D01*
X77980000Y-115385504D01*
X77815345Y-115453538D01*
X77355154Y-115912927D01*
X77285779Y-116080000D01*
X75114496Y-116080000D01*
X75046462Y-115915345D01*
X74587073Y-115455154D01*
X73986547Y-115205794D01*
X73336306Y-115205226D01*
X72735345Y-115453538D01*
X72275154Y-115912927D01*
X72025794Y-116513453D01*
X72025226Y-117163694D01*
X72273538Y-117764655D01*
X72732927Y-118224846D01*
X73333453Y-118474206D01*
X73983694Y-118474774D01*
X74584655Y-118226462D01*
X75044846Y-117767073D01*
X75114221Y-117600000D01*
X77285504Y-117600000D01*
X77353538Y-117764655D01*
X77812927Y-118224846D01*
X78413453Y-118474206D01*
X79063694Y-118474774D01*
X79664655Y-118226462D01*
X80124846Y-117767073D01*
X80374206Y-117166547D01*
X80374774Y-116516306D01*
X80126462Y-115915345D01*
X79667073Y-115455154D01*
X79500000Y-115385779D01*
X79500000Y-114614802D01*
X85404802Y-108710000D01*
X88099367Y-108710000D01*
X87965162Y-109033201D01*
X87965121Y-109080077D01*
X85822599Y-111222599D01*
X85657852Y-111469161D01*
X85600000Y-111760000D01*
X85600000Y-114099057D01*
X85530737Y-113750849D01*
X85219668Y-113285302D01*
X84754121Y-112974233D01*
X84204970Y-112865000D01*
X83435030Y-112865000D01*
X82885879Y-112974233D01*
X82420332Y-113285302D01*
X82109263Y-113750849D01*
X82000030Y-114300000D01*
X82109263Y-114849151D01*
X82420332Y-115314698D01*
X82802418Y-115570000D01*
X82420332Y-115825302D01*
X82109263Y-116290849D01*
X82000030Y-116840000D01*
X82109263Y-117389151D01*
X82420332Y-117854698D01*
X82802418Y-118110000D01*
X82420332Y-118365302D01*
X82109263Y-118830849D01*
X82000030Y-119380000D01*
X82109263Y-119929151D01*
X82420332Y-120394698D01*
X82802418Y-120650000D01*
X82420332Y-120905302D01*
X82109263Y-121370849D01*
X82000030Y-121920000D01*
X82109263Y-122469151D01*
X82164169Y-122551323D01*
X82012599Y-122652599D01*
X80965198Y-123700000D01*
X77325536Y-123700000D01*
X76956353Y-123330173D01*
X76801663Y-123265940D01*
X76898500Y-123265940D01*
X77133817Y-123221662D01*
X77349941Y-123082590D01*
X77494931Y-122870390D01*
X77545940Y-122618500D01*
X77545940Y-121221500D01*
X77501662Y-120986183D01*
X77362590Y-120770059D01*
X77150390Y-120625069D01*
X76898500Y-120574060D01*
X75501500Y-120574060D01*
X75266183Y-120618338D01*
X75050059Y-120757410D01*
X74965690Y-120880888D01*
X71880000Y-117795198D01*
X71880000Y-115884802D01*
X76737401Y-111027401D01*
X76902148Y-110780839D01*
X76960000Y-110490000D01*
X76960000Y-110372163D01*
X77767443Y-110372163D01*
X77866042Y-110638965D01*
X78475582Y-110865401D01*
X79125377Y-110841341D01*
X79613958Y-110638965D01*
X79712557Y-110372163D01*
X78740000Y-109399605D01*
X77767443Y-110372163D01*
X76960000Y-110372163D01*
X76960000Y-109534802D01*
X77110474Y-109384328D01*
X77118659Y-109605377D01*
X77321035Y-110093958D01*
X77587837Y-110192557D01*
X78560395Y-109220000D01*
X78919605Y-109220000D01*
X79892163Y-110192557D01*
X80158965Y-110093958D01*
X80385401Y-109484418D01*
X80361341Y-108834623D01*
X80158965Y-108346042D01*
X79892163Y-108247443D01*
X78919605Y-109220000D01*
X78560395Y-109220000D01*
X78546252Y-109205858D01*
X78725858Y-109026252D01*
X78740000Y-109040395D01*
X79712557Y-108067837D01*
X79613958Y-107801035D01*
X79004418Y-107574599D01*
X78916965Y-107577837D01*
X82166290Y-104328512D01*
X82078096Y-104489039D01*
X82095633Y-104571819D01*
X82365500Y-105064896D01*
X82803517Y-105417166D01*
X83343000Y-105575000D01*
X83693000Y-105575000D01*
X83693000Y-104267000D01*
X83947000Y-104267000D01*
X83947000Y-105575000D01*
X84297000Y-105575000D01*
X84836483Y-105417166D01*
X85274500Y-105064896D01*
X85544367Y-104571819D01*
X85561904Y-104489039D01*
X85439915Y-104267000D01*
X83947000Y-104267000D01*
X83693000Y-104267000D01*
X83673000Y-104267000D01*
X83673000Y-104013000D01*
X83693000Y-104013000D01*
X83693000Y-103993000D01*
X83947000Y-103993000D01*
X83947000Y-104013000D01*
X85439915Y-104013000D01*
X85561904Y-103790961D01*
X85544367Y-103708181D01*
X85274500Y-103215104D01*
X84841849Y-102867149D01*
X85219668Y-102614698D01*
X85530737Y-102149151D01*
X85581110Y-101895912D01*
X85822599Y-102137401D01*
G36*
X101473000Y-111025262D02*
X101309161Y-111057852D01*
X101062599Y-111222599D01*
X93201110Y-119084088D01*
X93150737Y-118830849D01*
X92839668Y-118365302D01*
X92457582Y-118110000D01*
X92839668Y-117854698D01*
X93150737Y-117389151D01*
X93259970Y-116840000D01*
X93150737Y-116290849D01*
X92839668Y-115825302D01*
X92461849Y-115572851D01*
X92894500Y-115224896D01*
X93164367Y-114731819D01*
X93181904Y-114649039D01*
X93059915Y-114427000D01*
X91567000Y-114427000D01*
X91567000Y-114447000D01*
X91313000Y-114447000D01*
X91313000Y-114427000D01*
X91293000Y-114427000D01*
X91293000Y-114173000D01*
X91313000Y-114173000D01*
X91313000Y-112865000D01*
X91567000Y-112865000D01*
X91567000Y-114173000D01*
X93059915Y-114173000D01*
X93181904Y-113950961D01*
X93164367Y-113868181D01*
X92894500Y-113375104D01*
X92456483Y-113022834D01*
X91917000Y-112865000D01*
X91567000Y-112865000D01*
X91313000Y-112865000D01*
X90963000Y-112865000D01*
X90423517Y-113022834D01*
X89985500Y-113375104D01*
X89715633Y-113868181D01*
X89698096Y-113950961D01*
X89820084Y-114172998D01*
X89660000Y-114172998D01*
X89660000Y-112074802D01*
X90484802Y-111250000D01*
X92710000Y-111250000D01*
X93000839Y-111192148D01*
X93247401Y-111027401D01*
X94294802Y-109980000D01*
X101473000Y-109980000D01*
X101473000Y-111025262D01*
X101473000Y-111025262D01*
G37*
X101473000Y-111025262D02*
X101309161Y-111057852D01*
X101062599Y-111222599D01*
X93201110Y-119084088D01*
X93150737Y-118830849D01*
X92839668Y-118365302D01*
X92457582Y-118110000D01*
X92839668Y-117854698D01*
X93150737Y-117389151D01*
X93259970Y-116840000D01*
X93150737Y-116290849D01*
X92839668Y-115825302D01*
X92461849Y-115572851D01*
X92894500Y-115224896D01*
X93164367Y-114731819D01*
X93181904Y-114649039D01*
X93059915Y-114427000D01*
X91567000Y-114427000D01*
X91567000Y-114447000D01*
X91313000Y-114447000D01*
X91313000Y-114427000D01*
X91293000Y-114427000D01*
X91293000Y-114173000D01*
X91313000Y-114173000D01*
X91313000Y-112865000D01*
X91567000Y-112865000D01*
X91567000Y-114173000D01*
X93059915Y-114173000D01*
X93181904Y-113950961D01*
X93164367Y-113868181D01*
X92894500Y-113375104D01*
X92456483Y-113022834D01*
X91917000Y-112865000D01*
X91567000Y-112865000D01*
X91313000Y-112865000D01*
X90963000Y-112865000D01*
X90423517Y-113022834D01*
X89985500Y-113375104D01*
X89715633Y-113868181D01*
X89698096Y-113950961D01*
X89820084Y-114172998D01*
X89660000Y-114172998D01*
X89660000Y-112074802D01*
X90484802Y-111250000D01*
X92710000Y-111250000D01*
X93000839Y-111192148D01*
X93247401Y-111027401D01*
X94294802Y-109980000D01*
X101473000Y-109980000D01*
X101473000Y-111025262D01*
G36*
X101473000Y-103380000D02*
X97790000Y-103380000D01*
X97499161Y-103437852D01*
X97252599Y-103602599D01*
X94740000Y-106115198D01*
X94740000Y-100330000D01*
X94682148Y-100039161D01*
X94682148Y-100039160D01*
X94517401Y-99792599D01*
X93247401Y-98522599D01*
X93086955Y-98415393D01*
X92839668Y-98045302D01*
X92461849Y-97792851D01*
X92894500Y-97444896D01*
X93164367Y-96951819D01*
X93181904Y-96869039D01*
X93059915Y-96647000D01*
X91567000Y-96647000D01*
X91567000Y-96667000D01*
X91313000Y-96667000D01*
X91313000Y-96647000D01*
X89820085Y-96647000D01*
X89698096Y-96869039D01*
X89715633Y-96951819D01*
X89985500Y-97444896D01*
X90418151Y-97792851D01*
X90040332Y-98045302D01*
X89729263Y-98510849D01*
X89620030Y-99060000D01*
X89729263Y-99609151D01*
X90040332Y-100074698D01*
X90422418Y-100330000D01*
X90040332Y-100585302D01*
X89870148Y-100840000D01*
X86674802Y-100840000D01*
X85495976Y-99661174D01*
X85530737Y-99609151D01*
X85639970Y-99060000D01*
X85530737Y-98510849D01*
X85219668Y-98045302D01*
X84837582Y-97790000D01*
X85219668Y-97534698D01*
X85530737Y-97069151D01*
X85639970Y-96520000D01*
X85570542Y-96170961D01*
X89698096Y-96170961D01*
X89820085Y-96393000D01*
X91313000Y-96393000D01*
X91313000Y-95085000D01*
X91567000Y-95085000D01*
X91567000Y-96393000D01*
X93059915Y-96393000D01*
X93181904Y-96170961D01*
X93164367Y-96088181D01*
X92894500Y-95595104D01*
X92456483Y-95242834D01*
X91917000Y-95085000D01*
X91567000Y-95085000D01*
X91313000Y-95085000D01*
X90963000Y-95085000D01*
X90423517Y-95242834D01*
X89985500Y-95595104D01*
X89715633Y-96088181D01*
X89698096Y-96170961D01*
X85570542Y-96170961D01*
X85530737Y-95970849D01*
X85219668Y-95505302D01*
X85027651Y-95377000D01*
X88265000Y-95377000D01*
X88314410Y-95366994D01*
X88356035Y-95338553D01*
X88383315Y-95296159D01*
X88392000Y-95250000D01*
X88392000Y-90140358D01*
X88606065Y-90244981D01*
X88773000Y-90118068D01*
X88773000Y-89027000D01*
X89027000Y-89027000D01*
X89027000Y-90118068D01*
X89193935Y-90244981D01*
X89577111Y-90057706D01*
X89853420Y-89733373D01*
X89984580Y-89327990D01*
X89984580Y-89027000D01*
X89027000Y-89027000D01*
X88773000Y-89027000D01*
X88753000Y-89027000D01*
X88753000Y-88773000D01*
X88773000Y-88773000D01*
X88773000Y-87681932D01*
X89027000Y-87681932D01*
X89027000Y-88773000D01*
X89984580Y-88773000D01*
X89984580Y-88472010D01*
X89853420Y-88066627D01*
X89577111Y-87742294D01*
X89193935Y-87555019D01*
X89027000Y-87681932D01*
X88773000Y-87681932D01*
X88606065Y-87555019D01*
X88392000Y-87659642D01*
X88392000Y-87070000D01*
X101473000Y-87070000D01*
X101473000Y-103380000D01*
X101473000Y-103380000D01*
G37*
X101473000Y-103380000D02*
X97790000Y-103380000D01*
X97499161Y-103437852D01*
X97252599Y-103602599D01*
X94740000Y-106115198D01*
X94740000Y-100330000D01*
X94682148Y-100039161D01*
X94682148Y-100039160D01*
X94517401Y-99792599D01*
X93247401Y-98522599D01*
X93086955Y-98415393D01*
X92839668Y-98045302D01*
X92461849Y-97792851D01*
X92894500Y-97444896D01*
X93164367Y-96951819D01*
X93181904Y-96869039D01*
X93059915Y-96647000D01*
X91567000Y-96647000D01*
X91567000Y-96667000D01*
X91313000Y-96667000D01*
X91313000Y-96647000D01*
X89820085Y-96647000D01*
X89698096Y-96869039D01*
X89715633Y-96951819D01*
X89985500Y-97444896D01*
X90418151Y-97792851D01*
X90040332Y-98045302D01*
X89729263Y-98510849D01*
X89620030Y-99060000D01*
X89729263Y-99609151D01*
X90040332Y-100074698D01*
X90422418Y-100330000D01*
X90040332Y-100585302D01*
X89870148Y-100840000D01*
X86674802Y-100840000D01*
X85495976Y-99661174D01*
X85530737Y-99609151D01*
X85639970Y-99060000D01*
X85530737Y-98510849D01*
X85219668Y-98045302D01*
X84837582Y-97790000D01*
X85219668Y-97534698D01*
X85530737Y-97069151D01*
X85639970Y-96520000D01*
X85570542Y-96170961D01*
X89698096Y-96170961D01*
X89820085Y-96393000D01*
X91313000Y-96393000D01*
X91313000Y-95085000D01*
X91567000Y-95085000D01*
X91567000Y-96393000D01*
X93059915Y-96393000D01*
X93181904Y-96170961D01*
X93164367Y-96088181D01*
X92894500Y-95595104D01*
X92456483Y-95242834D01*
X91917000Y-95085000D01*
X91567000Y-95085000D01*
X91313000Y-95085000D01*
X90963000Y-95085000D01*
X90423517Y-95242834D01*
X89985500Y-95595104D01*
X89715633Y-96088181D01*
X89698096Y-96170961D01*
X85570542Y-96170961D01*
X85530737Y-95970849D01*
X85219668Y-95505302D01*
X85027651Y-95377000D01*
X88265000Y-95377000D01*
X88314410Y-95366994D01*
X88356035Y-95338553D01*
X88383315Y-95296159D01*
X88392000Y-95250000D01*
X88392000Y-90140358D01*
X88606065Y-90244981D01*
X88773000Y-90118068D01*
X88773000Y-89027000D01*
X89027000Y-89027000D01*
X89027000Y-90118068D01*
X89193935Y-90244981D01*
X89577111Y-90057706D01*
X89853420Y-89733373D01*
X89984580Y-89327990D01*
X89984580Y-89027000D01*
X89027000Y-89027000D01*
X88773000Y-89027000D01*
X88753000Y-89027000D01*
X88753000Y-88773000D01*
X88773000Y-88773000D01*
X88773000Y-87681932D01*
X89027000Y-87681932D01*
X89027000Y-88773000D01*
X89984580Y-88773000D01*
X89984580Y-88472010D01*
X89853420Y-88066627D01*
X89577111Y-87742294D01*
X89193935Y-87555019D01*
X89027000Y-87681932D01*
X88773000Y-87681932D01*
X88606065Y-87555019D01*
X88392000Y-87659642D01*
X88392000Y-87070000D01*
X101473000Y-87070000D01*
X101473000Y-103380000D01*
M02*
